<?xml version="1.0" encoding="UTF-8"?>
<!-- Created with Inkscape (http://www.inkscape.org/) -->
<svg width="133.85mm" height="154.02mm" version="1.1" viewBox="0 0 133.85 154.02" xmlns="http://www.w3.org/2000/svg">
 <g transform="translate(-44.685 -49.71)">
  <g transform="matrix(.94627 0 0 .9499 18.95 6.9295)" stroke-width=".21167">
   <path d="m93.662 203.94c-5.5771-0.48144-7.7782-0.81388-11.853-1.7903-18.126-4.343-33.617-16.13-42.893-32.639-3.7537-6.6803-6.4467-14.673-7.7553-23.017-0.62104-3.9599-0.67002-14.071-0.08615-17.783 3.015-19.165 13.708-35.007 37.299-55.26 6.9508-5.9674 28.704-23.48 29.166-23.48 0.15041 0 1.4112 0.93283 2.8017 2.073 1.3905 1.1401 5.0523 4.1116 8.1374 6.6033 22.635 18.282 31.066 25.954 39.077 35.562 12.419 14.894 17.964 30.427 16.814 47.096-0.91698 13.284-5.4259 25.474-13.275 35.888-11.111 14.743-27.04 23.99-45.368 26.336-2.5391 0.32504-10.081 0.58141-12.065 0.41013zm9.5555-4.3258c14.988-1.4836 28.216-7.7008 38.709-18.194 12.318-12.318 18.906-28.892 18.342-46.148-0.41217-12.623-4.4857-23.372-13.276-35.031-7.3803-9.789-16.725-18.628-37.032-35.029-3.085-2.4916-7.1118-5.7589-8.9484-7.2606-1.9821-1.6206-3.4601-2.684-3.6366-2.6163-0.33601 0.12894-15.629 12.382-21.282 17.051-15.95 13.174-25.704 23.44-32.2 33.888-8.0963 13.021-10.818 26.522-8.3202 41.271 1.809 10.681 6.322 20.611 13.277 29.214 2.0682 2.5584 6.8384 7.2926 9.464 9.3927 9.1072 7.2844 20.494 11.99 32.279 13.339 3.0939 0.35423 9.6429 0.41792 12.625 0.12278zm-5.5367-4.8101c-0.0017-1.1351-0.05649-2.2634-0.122-2.5074-0.11251-0.41908-0.01626-0.45093 1.7364-0.57462 1.9557-0.13801 2.4101-1e-3 2.4101 0.7267 0 0.33446-0.16356 0.39742-1.0324 0.39742-0.65948 0-1.1276 0.11469-1.2959 0.3175-0.22661 0.27304-0.14725 0.3175 0.56675 0.3175 0.45663 0 0.94455 0.1143 1.0843 0.254 0.33329 0.33329 0.32637 1.0107-0.0106 1.0354-0.14552 0.0107-0.54858 0.0345-0.89569 0.0529-0.42887 0.0227-0.65557 0.15884-0.70744 0.42471-0.06848 0.35096 0.05063 0.38365 1.1569 0.3175 1.0529-0.063 1.2441-0.0181 1.307 0.30684 0.15208 0.7851-0.33682 0.99525-2.3155 0.99525h-1.8791l-0.0029-2.0638zm-5.6063 1.6601c-0.96803-0.11479-1.0551-0.17065-1.0209-0.65467 0.2439-3.4439 0.37335-4.4477 0.57585-4.4655 0.64492-0.0567 2.0128 0.0695 2.705 0.24945 2.3616 0.61411 2.5304 3.8186 0.2513 4.7709-0.72632 0.30347-0.77703 0.30549-2.5113 0.0999zm2.2225-1.5013c0.23283-0.23284 0.42333-0.66146 0.42333-0.9525 0-0.68103-0.73891-1.421-1.334-1.3359-0.37824 0.0541-0.48826 0.25507-0.61083 1.116-0.16217 1.1392 0.03835 1.5957 0.70078 1.5957 0.21858 0 0.58792-0.1905 0.82075-0.42333zm12.417 1.1043c-0.0482-0.0835-0.15618-0.71712-0.23999-1.408-0.22892-1.8872-0.42098-2.2645-1.1155-2.1917-0.45545 0.0478-0.59806-0.0361-0.64729-0.38061-0.0907-0.63472 0.28474-0.83865 2.0695-1.1241 1.4402-0.23035 1.6076-0.21965 1.8549 0.11866 0.34302 0.46912 0.24097 0.79138-0.2805 0.88578-0.7 0.12672-0.73802 0.33131-0.39633 2.1325 0.18315 0.96549 0.30357 1.7791 0.2676 1.8081-0.19553 0.15736-1.438 0.28833-1.5124 0.15942zm-21.912-1.0227c-0.97295-0.26397-1.8111-0.52208-1.8627-0.57358-0.05151-0.0515 0.10399-0.68032 0.34554-1.3974 0.24155-0.71704 0.49853-1.7367 0.57107-2.2659 0.15239-1.1118 0.35628-1.2435 1.4758-0.95321 2.8095 0.72842 2.6151 0.62948 2.6151 1.3312 0 0.57326-0.05721 0.63584-0.47625 0.5209-1.1702-0.321-2.0637-0.38917-2.0637-0.15746 0 0.13129 0.22336 0.23872 0.49636 0.23872 0.85458 0 1.5876 1.2152 0.96512 1.6-0.12752 0.0788-0.45447 0.0242-0.72656-0.12147-0.52263-0.2797-1.1583-0.16258-1.1583 0.21343 0 0.27697 0.90814 0.6364 1.6079 0.6364 0.68364 0 0.89076 0.56733 0.37941 1.0392-0.38082 0.35145-0.48392 0.34618-2.1688-0.11094zm25.639-2.2476 0.0708-2.5892 0.83557-0.25198c1.4105-0.42537 1.7498-0.35958 2.0807 0.4034 0.16407 0.37835 0.73685 1.3018 1.2728 2.0522 0.53598 0.75034 0.97452 1.4316 0.97452 1.5139 0 0.15764-1.1664 0.61437-1.5689 0.61437-0.12965 0-0.32975-0.21431-0.44467-0.47625-0.37609-0.85724-1.9008-0.33086-1.6728 0.57751 0.0932 0.37138 0.0113 0.50514-0.37247 0.60789-1.2681 0.33956-1.2527 0.37168-1.1755-2.4517zm2.171-0.38335c0.14683-0.23758-0.25488-0.8374-0.56081-0.8374-0.21688 0-0.25145 0.71041-0.0446 0.91722 0.20521 0.20521 0.44917 0.17305 0.60545-0.0798zm-32.454 1.1709c-0.64098-0.27845-0.67707-0.3431-0.43853-0.78546 0.14296-0.26512 0.52333-1.2917 0.84526-2.2812 0.55343-1.7011 0.61668-1.7967 1.1604-1.7547 0.31626 0.0245 0.65684 0.12632 0.75685 0.22633 0.18088 0.18088-1.2736 4.9227-1.5051 4.9067-0.06621-5e-3 -0.43469-0.14483-0.81884-0.31172zm36.686-1.2146c-0.19918-0.61119-0.59115-1.5967-0.87103-2.19-0.27988-0.59331-0.50888-1.1736-0.50888-1.2895 0-0.32136 2.7653-1.3359 3.6411-1.3359 0.58979 0 0.88085 0.13693 1.2273 0.57737 0.43472 0.55265 0.44779 0.78741 0.10492 1.8838-0.12277 0.39258-0.0719 0.43715 0.39649 0.3476 0.44357-0.0848 0.56186-5e-3 0.67799 0.4578 0.0982 0.39124 0.0273 0.68576-0.23471 0.9753-0.47874 0.529-1.0794 0.52474-1.9629-0.0139-0.86051-0.52464-1.2484-0.36065-0.79252 0.33507 0.18095 0.27616 0.329 0.55795 0.329 0.6262 0 0.10918-1.3259 0.73748-1.5563 0.73748-0.0485 0-0.25124-0.50006-0.45042-1.1112zm2.017-2.6645c0.87376-0.70753-0.0625-1.2231-1.0126-0.55765-0.5222 0.36576-0.42714 0.9467 0.1549 0.9467 0.20748 0 0.59344-0.17507 0.8577-0.38905zm-41.976 2.7826c-0.41932-0.10935-1.0025-1.1057-1.0025-1.7128 0-0.21921-0.06267-0.46124-0.13928-0.53784-0.22275-0.22275-0.70739 0.29285-0.70739 0.75258 0 0.35207-0.09458 0.39718-0.58208 0.27766-1.1333-0.27785-1.157-0.50149-0.25339-2.3926 0.45951-0.96174 0.83548-1.8934 0.83548-2.0704 0-0.57946 0.6253-0.57968 1.9641-6.4e-4 1.763 0.76248 2.2693 1.2614 2.2693 2.2363 0 0.78238-0.35764 1.2771-1.1186 1.5474-0.35118 0.12474-0.35387 0.17071-0.03821 0.65247 0.31828 0.48574 0.3121 0.54575-0.09846 0.95631-0.44876 0.44875-0.48764 0.4588-1.1288 0.29158zm0.79663-3.5725c0-0.4333-1.0221-1.0505-1.3767-0.83135-0.425 0.26267-0.20966 0.91711 0.37128 1.1284 0.75361 0.27404 1.0054 0.19965 1.0054-0.29701zm44.815 0.0677c-0.49127-0.96043-1.0109-1.9112-1.1548-2.1127-0.33684-0.47179-0.0808-0.72008 1.7083-1.6564 1.0318-0.53999 1.4233-0.65128 1.6933-0.48126 0.64914 0.40877 0.4961 0.8133-0.48869 1.2917-0.52759 0.25633-0.95926 0.61016-0.95926 0.7863 0 0.41312 0.29751 0.4094 0.64397-8e-3 0.41988-0.50592 1.5616-0.32 1.6452 0.26791 0.05 0.35203-0.0664 0.50217-0.46757 0.60286-0.7122 0.17875-1.1187 0.66843-0.81063 0.9765 0.16691 0.16692 0.50506 0.0704 1.2186-0.34773 1.0001-0.58612 1.2764-0.54878 1.404 0.18978 0.0545 0.3155-0.2908 0.61509-1.5169 1.316-0.87312 0.49911-1.6853 0.91059-1.8049 0.91442-0.11957 4e-3 -0.61935-0.77886-1.1106-1.7393zm-52.541 0.0395c-0.75671-0.45347-1.4711-0.85972-1.5875-0.90277-0.11708-0.0433 0.0042-0.44726 0.27142-0.90398 0.2657-0.45414 0.81511-1.4697 1.2209-2.2568l0.73784-1.4311 0.89574 0.45672c1.7452 0.88984 2.4832 1.4502 2.4832 1.8856 0 0.62805-0.48768 0.70921-1.2969 0.21584-0.74247-0.45265-1.4547-0.57412-1.4547-0.24809 0 0.1038 0.24136 0.2493 0.53637 0.32334 0.75293 0.18898 1.1381 1.0792 0.6697 1.5476-0.32646 0.32646-0.38525 0.31819-0.8513-0.11963-0.5031-0.47264-1.3006-0.4419-1.141 0.044 0.06845 0.20846 1.3552 1.0412 1.9504 1.2622 0.26049 0.0967-0.50463 0.99403-0.82656 0.96935-0.12748-0.01-0.8509-0.3888-1.6076-0.84228zm57.505-2.8178c-0.54393-0.85866-1.1321-1.68-1.3069-1.8251-0.47806-0.39676-0.38727-0.71484 0.32396-1.135 0.54969-0.32471 0.79448-0.34648 1.7038-0.15147 0.58401 0.12525 1.1048 0.22772 1.1572 0.22772 0.24531 0 0.052-0.54813-0.34084-0.96625l-0.43625-0.46437 0.57063-0.44885c0.61314-0.4823 1.1485-0.58745 1.1485-0.22558 0 0.26318 1.5585 2.6297 2.1971 3.3363l0.44324 0.4904-0.52643 0.40448c-0.6787 0.52146-0.76838 0.5151-1.5075-0.10685-0.5969-0.50226-1.8101-0.87721-2.3047-0.71233-0.1414 0.0471 0.0826 0.54777 0.54725 1.2233l0.7866 1.1435-0.47623 0.38562c-0.26193 0.2121-0.59193 0.38563-0.73334 0.38563s-0.70215-0.70254-1.2461-1.5612zm-62.214-0.0614c-0.88179-0.65371-1.3153-1.3407-0.84592-1.3407 0.08772 0 0.67712-0.80963 1.3098-1.7992 0.63265-0.98954 1.2148-1.7992 1.2936-1.7992 0.07884 0 0.38914 0.19334 0.68956 0.42965l0.54621 0.42965-0.941 1.3461c-1.0794 1.5441-1.1512 1.9412-0.41183 2.2781 0.57842 0.26354 0.66863 0.58402 0.27517 0.97748-0.3989 0.3989-0.83305 0.28061-1.9156-0.52193zm-3.7129-2.6556c-0.60639-0.4725-1.1025-0.9428-1.1025-1.0451s0.44549-0.73237 0.98998-1.4001c0.54449-0.66775 1.173-1.5236 1.3967-1.902 0.22372-0.37835 0.46976-0.68791 0.54677-0.68791 0.077 0 0.40356 0.24438 0.72568 0.54306l0.58567 0.54307-0.87771 0.99152c-0.48274 0.54533-0.98216 1.2174-1.1098 1.4936-0.20242 0.43784-0.15514 0.56342 0.36977 0.98197 0.61397 0.48956 0.59941 0.79442-0.05468 1.1445-0.28215 0.151-0.62304-3e-3 -1.4699-0.6625zm72.443-1.5552c-1.0988-1.4161-1.3119-1.5325-2.012-1.0986-0.35188 0.21808-0.46242 0.20878-0.62889-0.0529-0.35603-0.55971-0.23263-0.78383 1.0374-1.8841 1.3161-1.1401 1.711-1.2797 2.1441-0.7578 0.218 0.26268 0.1999 0.39539-0.099 0.72566-0.48472 0.53562-0.31683 0.97314 0.8345 2.1747 0.525 0.54787 0.95453 1.0884 0.95453 1.2011 0 0.11272-0.26559 0.39407-0.59021 0.62522l-0.59021 0.42026zm-75.866-1.2489-0.48919-0.52071 1.1201-1.2255c0.61604-0.67404 1.3137-1.4875 1.5504-1.8076 0.52433-0.70918 0.77625-0.72653 1.3702-0.0943l0.45822 0.48775-1.1732 1.2585c-0.64528 0.69216-1.3317 1.5204-1.5253 1.8406-0.43379 0.71719-0.68407 0.7289-1.3112 0.0614zm13.327-1.1092c-4.3752-2.5592-7.6988-5.2085-11.536-9.1953-1.397-1.4515-3.2544-3.6086-4.1275-4.7936-1.8608-2.5253-4.8683-7.5618-4.8683-8.1526 0-0.38831 0.02543-0.39147 0.47625-0.0592 1.8251 1.3453 4.3807 2.894 4.9525 3.0012 0.3751 0.0704 1.0408 0.01 1.4794-0.13521 0.56689-0.18709 0.81973-0.19608 0.87472-0.0311 0.19923 0.59769 1.0646 1.6412 1.6371 1.9741 1.4393 0.83686 7.6738 2.299 9.8117 2.3011 1.7045 2e-3 2.7567 0.33418 2.873 0.90789 0.05204 0.25672 0.14291 2.6099 0.20192 5.2293 0.05902 2.6194 0.2574 5.8874 0.44086 7.2622 0.31205 2.3385 0.30022 2.9199-0.05869 2.8826-0.08044-8e-3 -1.0511-0.5445-2.1571-1.1914zm65.5-0.4822c-0.43588-0.92885-0.96895-1.8485-1.1846-2.0436-0.56466-0.51101-0.49892-0.7312 0.51552-1.7268 1.0147-0.99589 1.2071-1.0543 1.6955-0.51463 0.1872 0.20686 1.1068 0.74981 2.0436 1.2066 0.93679 0.45674 1.7033 0.88879 1.7033 0.96012 0 0.0713-0.28638 0.40405-0.6364 0.73939-0.49302 0.47234-0.6933 0.5528-0.889 0.3571-0.4096-0.4096-0.9797-0.29097-1.3551 0.28199-0.32336 0.49351-0.32386 0.56378-6e-3 0.91445 0.32027 0.35389 0.30329 0.41866-0.24827 0.94708-0.32562 0.31197-0.64908 0.56721-0.71879 0.56721-0.0697 0-0.48337-0.75997-0.91926-1.6888zm1.3442-1.9533c0.0348-0.17943-0.0979-0.38809-0.29488-0.46369-0.47108-0.18077-0.57922-0.0463-0.4048 0.50322 0.15799 0.49777 0.60026 0.47279 0.69968-0.0395zm-13.638-0.11492c0.58501-6.8571 0.64415-16.009 0.15011-23.23-0.19789-2.8926-0.1605-2.9524 1.5906-2.5438 3.4656 0.80845 5.1774 1.9514 11.474 7.6607 1.0495 0.95163 2.298 1.9882 2.7745 2.3036s0.86634 0.71178 0.86634 0.88101c0 0.65129-3.2144 4.9214-6.0477 8.0338-2.7905 3.0654-9.6222 8.5404-10.652 8.5367-0.23964-8.4e-4 -0.26913-0.31181-0.15569-1.6415zm-69.721 0.68278-0.50195-0.53429 1.3146-1.3264c1.2236-1.2345 1.2929-1.3551 1.0009-1.7411-0.43746-0.57855-0.4017-0.89172 0.12076-1.0575 0.35581-0.11293 0.7038 0.11115 1.6933 1.0904 1.3188 1.305 1.4385 1.5629 0.92402 1.9899-0.26348 0.21867-0.40011 0.19562-0.75746-0.12777-0.43093-0.38999-0.45077-0.37928-1.7097 0.92328-0.70056 0.72483-1.3432 1.3179-1.4281 1.3179-0.08492 0-0.38028-0.24043-0.65635-0.5343zm87.423-2.1772c0-0.18175-2.4405-2.3231-3.068-2.692-0.34075-0.20029-0.32404-0.2726 0.20958-0.90677l0.57986-0.68913 1.0864 1.0164c0.59751 0.55899 1.4624 1.3219 1.922 1.6953l0.83559 0.67891-0.50207 0.53443c-0.48572 0.51702-1.0633 0.71414-1.0633 0.3629zm-90.92-1.3823c-0.78171-0.78171-1.0598-1.5534-0.85462-2.371 0.12901-0.51402 0.65078-0.90901 0.88776-0.67204 0.06161 0.0616 0.16092 0.43057 0.22068 0.8199 0.1294 0.84298 0.89612 1.768 1.2074 1.4566 0.13801-0.13801 0.01369-0.59605-0.36487-1.3442-0.47297-0.93481-0.53618-1.2349-0.3585-1.7022 0.51723-1.3604 2.25-1.0646 3.3794 0.5769 0.57848 0.84079 0.63039 1.0234 0.39712 1.397-0.39004 0.62456-0.78203 0.52809-1.1176-0.27505-0.32274-0.77243-0.88368-1.341-1.1048-1.1199-0.07735 0.0774 0.06782 0.56972 0.32261 1.0942 0.57536 1.1843 0.58677 1.877 0.03992 2.4239-0.68446 0.68446-1.8062 0.56451-2.6545-0.28386zm92.331-1.5506c-0.30837-0.30837-0.11141-0.72733 0.44058-0.9372 0.79487-0.30221 1.3233-0.81448 1.3233-1.2828 0-0.54056-0.14253-0.49818-1.178 0.3503-2.535 2.0772-4.0176-0.64459-1.602-2.941 0.63063-0.5995 0.65637-0.60481 1.2014-0.24768l0.55698 0.36494-0.86502 0.74042c-0.77346 0.66206-1.1338 1.3459-0.70627 1.3404 0.0873-1e-3 0.57697-0.33451 1.0881-0.74084 0.51116-0.40633 1.1584-0.73878 1.4384-0.73878 0.63155 0 1.5481 0.88392 1.5481 1.493 0 0.71377-0.63122 1.8622-1.2758 2.3212-0.57154 0.40697-1.6838 0.56398-1.9697 0.27806zm-95.376-2.3216c-0.24128-0.30675-0.43522-0.61631-0.43097-0.68792 0.0043-0.0716 0.4139-0.38724 0.91032-0.70139 0.49643-0.31416 1.341-0.9571 1.8768-1.4288 0.53583-0.47166 1.0396-0.85757 1.1195-0.85757 0.21514 0 0.93876 0.9141 0.94691 1.1962 0.0039 0.13402-0.30252 0.42672-0.68087 0.65044-0.37836 0.22372-1.2343 0.85225-1.902 1.3967-0.66775 0.54449-1.2562 0.98998-1.3076 0.98998s-0.29088-0.25097-0.53216-0.55771zm99.192-2.4833c-0.3265-0.26718-1.2068-0.81145-1.9561-1.2095-0.74938-0.39802-1.3633-0.78978-1.3643-0.87057-3e-3 -0.28599 1.7946-3.1282 2.0381-3.2216 0.13599-0.0522 0.4125 0.0259 0.61446 0.17361 0.34315 0.25093 0.33064 0.33087-0.1911 1.2212-0.64644 1.1031-0.67181 1.233-0.24078 1.233 0.17462 0 0.3175-0.12812 0.3175-0.2847 0-0.4287 0.76311-1.0324 1.1989-0.94851 0.51382 0.099 0.61979 0.77737 0.17251 1.1044-0.41432 0.30296-0.34516 1.0813 0.0961 1.0813 0.16364 0 0.52637-0.42863 0.80605-0.9525 0.51283-0.96058 0.76009-1.0604 1.3053-0.52701 0.25547 0.24991 0.14967 0.53525-0.74036 1.9968-0.57113 0.93787-1.1339 1.7018-1.2506 1.6976-0.11668-4e-3 -0.47927-0.22622-0.80576-0.49341zm-100.79-0.54759c-0.66839-0.27646-2.4345-2.5078-2.434-3.0751 1.18e-4 -0.1185 0.476-0.48267 1.0575-0.80928 0.58151-0.32661 1.4736-0.91159 1.9824-1.3 0.50879-0.38837 1.0123-0.64502 1.119-0.57034 0.48247 0.33779 1.6043 2.4281 1.6896 3.1482 0.11692 0.98682-0.24189 1.6979-1.1736 2.3258-0.7343 0.49484-1.4934 0.58991-2.241 0.28066zm1.5905-1.6629c0.55241-0.44732 0.6287-1.4041 0.15013-1.8827-0.28971-0.2897-0.42375-0.25387-1.2965 0.34657-0.53534 0.36833-0.97335 0.76036-0.97335 0.87118 0 0.35019 0.83008 1.0482 1.2466 1.0482 0.21994 0 0.61284-0.17244 0.87312-0.3832zm24.12-3.3297c-0.22169-0.26711-0.14585-1.3889 0.41855-6.1912 0.37911-3.2258 0.86884-7.4252 1.0883-9.332 0.21944-1.9068 0.49655-3.5845 0.61578-3.7282 0.11924-0.14367 0.76362-0.32507 1.432-0.4031 0.66834-0.078 2.0651-0.34098 3.1038-0.58431 1.693-0.3966 1.9135-0.40851 2.1281-0.11495 0.1317 0.18012 0.4555 1.7874 0.71955 3.5716 0.67144 4.5372 1.3929 7.8233 2.0167 9.1859 0.49351 1.078 2.5029 3.323 4.2165 4.7111 0.48292 0.39118 0.54924 0.54277 0.34506 0.78879-0.47701 0.57476-5.95 1.9827-6.6552 1.712-0.30072-0.1154-0.33584-0.31093-0.21441-1.1938 0.19208-1.3966-0.43051-2.7685-1.483-3.268-0.64087-0.30411-0.80669-0.30859-1.4514-0.0392-1.4453 0.60388-2.2015 2.5084-1.6118 4.0593 0.36891 0.97031 6.45e-4 1.1522-2.3329 1.1522-1.6017 0-2.1256-0.0732-2.3356-0.32623zm7.1049-10.14c0.54873-0.22927 0.73404-0.43504 0.73404-0.81508 0-1.276-1.1695-3.3232-1.8985-3.3232-0.52365 0-1.233 1.1806-1.4693 2.4452-0.22158 1.1861-0.12392 1.5456 0.48682 1.7924 0.67232 0.27166 1.3321 0.24113 2.1469-0.0993zm-11.754 9.8419c-2.4663-0.46344-6.0044-1.4531-6.5058-1.8197-0.35246-0.25773-0.35121-0.34687 0.02569-1.8236 1.3906-5.4486 4.6553-16.842 4.8972-17.091 0.24923-0.2564 0.47431-0.21598 1.5931 0.28611 0.71658 0.32157 2.079 0.73202 3.0276 0.91208 2.4763 0.47007 2.4112 0.3418 1.7191 3.3866-0.12078 0.53135-0.49312 0.59118-1.4733 0.23673-0.5539-0.20029-0.82209-0.16887-1.6376 0.19186-0.53637 0.23727-1.1446 0.68985-1.3516 1.0058-0.36254 0.55332-0.36126 0.60228 0.03507 1.3362 0.54764 1.0141 1.6431 1.7274 2.6527 1.7274 0.44158 0 0.86408 0.099 0.9389 0.2201 0.11722 0.18967-0.12511 2.2445-0.44208 3.7486-0.1261 0.59836-0.69742 0.61728-1.6218 0.0537-1.1858-0.72299-2.2289-0.48892-2.8075 0.62997-0.41462 0.80179-0.40952 2.3218 0.0098 2.9205 0.41524 0.59284 1.0919 0.59919 2.4316 0.0228 1.5383-0.66174 1.6844-0.52675 1.6807 1.5522-0.0032 1.8028-0.29442 2.7786-0.84886 2.8446-0.17171 0.0204-1.2171-0.13289-2.323-0.34071zm74.02-2.7089c-0.64062-0.43656-2.3885-1.9075-3.8843-3.2688-1.4957-1.3613-3.5623-3.1092-4.5925-3.8843-1.6732-1.2589-1.8617-1.469-1.7676-1.9699 0.0579-0.3084 0.35923-1.7037 0.66951-3.1007 1.7636-7.9401 2.8505-18.221 2.9738-28.13 0.0549-4.4097 0.1401-5.9462 0.33644-6.0675 0.14461-0.0894 1.2476-0.22961 2.451-0.31164 3.6178-0.24659 6.5156 0.39447 7.9792 1.7651 1.5212 1.4246 2.5858 5.7554 3.014 12.26 0.18542 2.8174-4e-3 2.9286-1.9483 1.1466-0.77002-0.70559-1.8342-1.4931-2.3649-1.75-0.87446-0.42332-1.0163-0.43829-1.5134-0.15968-0.79741 0.44696-1.1584 1.3672-1.1618 2.9617-6e-3 2.7259 1.6112 4.6231 4.0935 4.8027 0.69292 0.0501 1.5648-0.0152 1.9374-0.14508 1.2327-0.42971 1.3198-0.16923 1.1572 3.4614-0.22336 4.9883-0.49961 7.5686-0.84755 7.9165-0.33897 0.33897-0.34349 0.33484-2.2817-2.0893-1.0179-1.273-2.1148-2.1167-2.7522-2.1167-0.65605 0-1.5808 1.1086-1.9572 2.3464-0.19171 0.63034-0.39736 2.0033-0.45699 3.0511-0.12163 2.137 0.20569 3.1415 1.1918 3.6578 0.71365 0.37361 2.3165 0.18544 3.9828-0.46758 1.7739-0.69518 2.0312-0.57992 1.8649 0.83526-0.2383 2.0275-1.3874 6.1174-2.1588 7.6836-0.75278 1.5284-1.6183 2.3641-2.4504 2.366-0.19199 4.2e-4 -0.87321-0.3564-1.5138-0.79296zm-51.116-0.46135c-2.9201-0.98855-5.4947-4.0129-6.3873-7.503-0.50434-1.9719-1.4883-8.1963-1.4883-9.4145 0-0.86268 0.03353-0.90691 1.0054-1.3262 1.5642-0.67479 2.0011-0.63207 2.4252 0.23712 0.36184 0.74155 1.1472 3.5988 2.172 7.9018 0.82114 3.448 1.9003 5.2215 3.1773 5.2215 1.1369 0 1.5645-1.3614 1.0815-3.4438-0.42837-1.8471-1.0861-3.1206-2.8983-5.6116-1.6432-2.2587-2.7921-4.4728-2.6908-5.1856 0.04953-0.34841 0.47707-0.67246 1.6543-1.2539 1.8716-0.92437 2.2125-0.96534 2.6373-0.31697 0.66369 1.0129 3.9009 8.3863 4.5723 10.414 0.60745 1.8348 0.70256 2.4126 0.71432 4.3392 0.01496 2.451-0.19178 3.0846-1.4389 4.4101-0.70861 0.75316-1.3977 1.1717-2.6657 1.619-0.68257 0.24083-0.93515 0.229-1.8704-0.0876zm-35.935-1.7882c-6.1122-4.0508-9.2887-10.343-8.552-16.94 0.72466-6.4892 4.0402-12.435 10.948-19.633 3.8031-3.963 4.4108-5.039 4.2259-7.4834-0.24344-3.2188-2.5879-6.8103-5.3193-8.1488-2.9997-1.4699-5.8216-0.94205-8.9752 1.679-2.7204 2.2609-2.0135 3.6131 1.7434 3.3352 1.3925-0.10302 1.631-0.0789 1.2862 0.13021-0.25861 0.1568-1.2657 0.25668-2.5881 0.25668-2.06 0-2.1919-0.0272-2.7262-0.56141-0.48627-0.48627-0.5412-0.66915-0.41041-1.3663 0.11727-0.62512 0.51341-1.1651 1.7737-2.4179 3.4365-3.416 7.1738-4.2126 11.114-2.3687 3.3381 1.5621 6.8375 6.7129 7.5375 11.095 0.27898 1.7464-0.0097 4.1888-0.83316 7.0497-0.71036 2.4679-1.2295 4.9172-1.4117 6.6612-0.07107 0.67994-0.18802 1.3216-0.2599 1.4259-0.07188 0.10429-1.091 0.29344-2.2648 0.42034-2.8577 0.30897-4.0618 0.88946-5.9109 2.8496-3.41 3.6148-5.5072 8.5-4.7803 11.135 0.28335 1.0273 1.2543 2.2323 2.2204 2.7558 0.98112 0.53163 4.2286 0.44997 6.1598-0.15489 3.0791-0.96439 3.0525-0.95878 3.3122-0.69908 0.1859 0.18591-0.23982 1.6692-1.7591 6.1288-1.6503 4.8443-2.0767 5.8923-2.4137 5.9331-0.22517 0.0272-1.1776-0.45965-2.1165-1.0819zm97.069-2.1348c-0.22541-0.27161-0.15878-0.71846 0.38802-2.602 1.501-5.1704 2.1456-9.9038 2.1456-15.756 0-8.5565-1.6827-15.529-5.5954-23.186-3.7887-7.4144-8.7835-13.824-17.288-22.184-6.1493-6.0451-11.462-10.626-25.271-21.788-3.7253-3.0113-7.1506-5.7946-7.6117-6.1851-0.46108-0.39046-0.95734-0.66426-1.1028-0.60843-0.33291 0.12775-13.96 11.032-18.908 15.13-8.3426 6.9093-17.335 15.387-21.687 20.446-0.90137 1.0478-1.7483 1.9678-1.8821 2.0446-0.29614 0.1699-1.4074-0.0207-1.4074-0.24144 0-0.41985 4.5548-5.4421 8.5536-9.4314 4.7254-4.7142 9.0841-8.6443 15.153-13.663 6.4093-5.3004 19.977-16.129 20.237-16.152 0.44231-0.03865 20.601 16.389 27.599 22.491 4.1971 3.6597 12.865 12.329 15.479 15.481 8.9207 10.758 13.436 20.309 14.91 31.538 0.43237 3.2936 0.31377 11.374-0.21747 14.817-0.38365 2.4861-1.8465 8.5762-2.2745 9.4692-0.32677 0.68178-0.83856 0.84152-1.2207 0.38102zm-109.88-0.90732c-0.44055-1.1559-1.6672-6.4833-1.9839-8.6161-0.17809-1.1994-0.4307-3.6754-0.56136-5.5024-0.61096-8.5428 1.2794-18.165 5.0544-25.728 0.69485-1.392 0.85704-1.5802 1.3171-1.5285 0.28857 0.0324 0.59468 0.12902 0.68026 0.2146 0.08557 0.0856-0.35926 1.2614-0.98852 2.6129-5.1417 11.043-6.0907 23.489-2.7369 35.893 0.41588 1.5381 0.69506 2.8954 0.6204 3.0162s-0.37061 0.21964-0.65766 0.21964c-0.37447 0-0.58459-0.16444-0.74377-0.58208zm59.632-0.2949c-0.0541-0.27437-0.25311-1.5208-0.44233-2.7699-0.69763-4.6051-1.4992-6.7138-4.7501-12.497-0.94695-1.6845-1.6693-3.1942-1.6052-3.355 0.06409-0.16079 0.47071-0.5438 0.90359-0.85113 0.43289-0.30734 2.3944-1.9028 4.3589-3.5454s3.7504-2.9866 3.9688-2.9866c0.48626 0 0.49291 0.25184 0.0643 2.4342-0.21734 1.1065-0.30901 2.5002-0.26455 4.0217l0.068 2.3283-0.91851 0.29059c-1.6342 0.51703-2.2092 2.1734-1.1793 3.3973 0.66335 0.78835 1.5165 0.85898 2.4086 0.1994 0.74599-0.55153 1.1919-0.41604 1.3751 0.41781 0.076 0.34626 0.46603 1.1739 0.86662 1.8391 1.0205 1.6948 1.0022 1.7933-0.3901 2.0989-0.34191 0.0751-0.68925 0.34878-0.82744 0.65206-0.50354 1.1052 0.37213 2.5548 2.8455 4.7107 0.43656 0.38052 0.79375 0.81876 0.79375 0.97386 0 0.28751-5.5462 2.8337-6.6049 3.0323-0.47342 0.0888-0.58938 0.0211-0.67067-0.39152zm26.604-4.2619c-1.0692-0.34161-1.993-0.74895-2.0529-0.9052-0.06-0.15626-8.5e-4 -0.86586 0.1314-1.5769 0.38034-2.0452-0.19598-10.918-1.6476-25.366-0.41188-4.0993-0.48108-5.4338-0.29348-5.6598 0.24822-0.29909 2.9812-1.2403 5.4675-1.883 2.0441-0.52838 2.0562-0.49519 1.2817 3.4913-2.3454 12.071-3.3524 19.901-2.7475 21.361 0.38509 0.9297 1.1558 0.86853 2.4954-0.19802 1.0554-0.84036 1.6039-1.0323 1.8432-0.64508 0.23355 0.3779-1.0997 8.5852-1.7948 11.049-0.11992 0.42498-0.33524 0.81341-0.47849 0.86317-0.14324 0.0498-1.1352-0.18901-2.2044-0.53062zm-13.604-0.189c-3.231-0.9273-7.2153-6.1209-8.4687-11.039-1.3956-5.4764-1.0048-11.121 0.91636-13.233 2.6182-2.8784 6.0884 0.49315 9.7768 9.4986 1.3457 3.2857 1.647 4.7102 1.6549 7.8253 0.01 3.8537-0.80369 6.2668-2.3274 6.9034-0.38597 0.16127-0.72863 0.28463-0.76148 0.27412-0.0328-0.0105-0.38859-0.11347-0.79055-0.22883zm-0.98431-9.8694c0.26736-1.573-0.0802-2.5431-1.431-3.9943-0.84064-0.90315-1.2134-1.1659-1.4986-1.0564-0.33638 0.12908-0.36989 0.36954-0.29383 2.1085 0.0983 2.248 0.54409 3.2437 1.712 3.8242 1.05 0.52189 1.2974 0.37752 1.5114-0.88203zm8.5943 9.2707-2.6458-0.10583 0.0183-0.635c0.0101-0.34925 0.14142-1.4922 0.29189-2.54 0.513-3.572 0.0241-7.2987-1.4355-10.943-1.0479-2.6161-3.3234-7.1339-5.0048-9.9365-0.92211-1.537-1.5505-2.8048-1.4806-2.9871 0.25657-0.66861 6.6729-3.8658 7.4556-3.7151 0.20585 0.0396 0.41335 0.37179 0.50412 0.80693 0.17672 0.84724 0.65964 5.5633 1.1378 11.111 0.39073 4.5337 0.8295 7.659 1.1847 8.4387 0.31645 0.69453 1.04 0.90474 1.8951 0.55054 0.44673-0.18503 0.71008-0.19878 0.86377-0.0451 0.21344 0.21345 0.81934 9.2166 0.65377 9.7146-0.12155 0.36553-0.54904 0.40101-3.4384 0.28544zm-63.643-6.2857c-1.0149-0.19756-1.1273-1.182-0.16266-1.4241 0.79473-0.19946 1.1527-1.1454 1.1527-3.0461 0-1.3694 0.07938-1.7762 0.43468-2.2279 0.80319-1.0211 2.952-1.1909 2.952-0.23322 0 0.17308 0.28575 0.94491 0.635 1.7152s0.635 1.479 0.635 1.5751c0 0.096-0.58893 0.80421-1.3087 1.5737-1.7995 1.9237-2.7498 2.3766-4.338 2.0674zm12.922-2.0698c-0.83002-0.15066-2.252-0.61079-3.1599-1.0225-1.6028-0.72682-1.6674-0.78506-2.2201-2.0028-0.31313-0.68983-0.73197-1.7439-0.93075-2.3424-0.2501-0.75298-0.62662-1.3151-1.2225-1.8252l-0.86106-0.73703 0.75375-0.83431c0.61932-0.68552 0.7783-1.0547 0.89139-2.0702 0.23764-2.134 0.72163-4.5743 1.3607-6.8607 0.9747-3.4872 1.1409-4.6417 1.0262-7.1266-0.12551-2.7179-0.85239-4.9507-2.5089-7.707-1.0857-1.8064-1.1564-1.9864-0.85406-2.1732 0.32868-0.20314 23.404-8.3778 23.625-8.3695 0.11779 0.0044 0.47975 0.3918 0.80434 0.86084 0.60317 0.8716 1.6346 1.4595 2.5607 1.4595 1.1084 0 1.1883 0.13419 1.1883 1.9953 0 1.5904-0.04503 1.7775-0.52917 2.1985-0.29349 0.25518-0.52917 0.68956-0.52917 0.97531 0 0.29744 0.22366 0.69113 0.52917 0.93144 0.57487 0.45219 0.6928 1.238 0.26458 1.763-0.14552 0.17841-1.3123 1.1651-2.5929 2.1926-4.4022 3.5323-5.9721 5.3348-7.5162 8.6298-1.1662 2.4886-1.7437 5.0288-1.7669 7.7725-0.02401 2.8375 0.2884 3.5847 1.7807 4.2592 1.0488 0.47401 1.1903 0.82084 0.33474 0.82084-0.26131 0-0.97752 0.25036-1.5916 0.55635-1.8639 0.92884-3.3598 3.2148-4.5808 7.0001-0.69606 2.158-0.94936 2.2566-4.2558 1.6564zm-25.902-8.8153c0-2.5276 1.1625-8.1337 2.4723-11.922 0.89863-2.5994 3.3202-7.6804 4.5761-9.602 0.50896-0.7787 1.1393-1.773 1.4008-2.2096 0.49373-0.82441 1.1657-1.0426 1.667-0.54123 0.19558 0.19558 0.14908 0.36262-0.20623 0.74083-0.51241 0.54544-0.45723 0.58579 0.37067 0.27102 0.83332-0.31682 1.3584 0.12084 2.3042 1.9207 1.0528 2.0035 1.2372 3.7004 0.54875 5.05-0.25541 0.50065-1.7734 2.2641-3.3732 3.9188-4.0208 4.1586-6.7694 7.8594-8.6197 11.606-0.44559 0.90223-0.88452 1.6404-0.97542 1.6404s-0.16525-0.39259-0.16525-0.87242zm69.378-15.796c-1.1932-1.7944-2.5931-3.2109-5.581-5.647-3.5528-2.8967-3.9524-3.4612-2.9923-4.2267 0.76149-0.60719 0.78282-1.5667 0.049-2.2047-0.4641-0.40353-0.52917-0.63117-0.52917-1.8512 0-1.7146 0.2358-2.21 1.052-2.21 2.2126 0 3.5916-1.7882 3.6-4.668 4e-3 -1.2947-0.0965-1.798-0.52719-2.6458-1.0948-2.1552-1.7144-2.2665-12.112-2.1743-6.7583 0.05991-7.8654 0.11506-8.4169 0.41929-0.8604 0.47465-1.4815 1.1841-1.8771 2.1443-0.27415 0.66539-0.5558 0.90554-1.6607 1.416-1.9233 0.8885-21.947 9.9483-22.755 10.296-0.6643 0.28555-0.70607 0.27072-1.7093-0.60681-0.56559-0.49472-1.4022-1.199-1.8591-1.565-0.80119-0.64182-0.81943-0.68448-0.51322-1.2001 0.56916-0.95837 4.8674-5.5988 7.9971-8.6337 3.1471-3.0518 7.4694-6.9022 12.107-10.784 3.7449-3.1354 18.068-14.594 18.242-14.594 0.17643 0 13.408 10.698 18.699 15.118 9.7271 8.1268 16.092 14.339 21.162 20.653 2.0049 2.4972 4.9792 6.8803 4.9792 7.3375 0 0.29151-0.19177 0.32135-1.3229 0.20581-1.53-0.15628-5.7154 0.19335-6.3766 0.53267-0.24729 0.1269-0.69506 0.45923-0.99506 0.73853-0.53468 0.49778-0.56184 0.50089-1.3758 0.15742-1.0287-0.43405-1.8664-0.28692-6.1574 1.0814-3.2192 1.0265-3.8969 1.4872-4.1969 2.8532-0.15796 0.71918-0.42567 0.80036-0.98128 0.29754-0.67506-0.61093-2.0528-0.60939-3.4383 4e-3 -0.68388 0.30269-1.4094 0.55035-1.6123 0.55035-0.20288 0-0.60639-0.35719-0.89669-0.79375zm-22.612-33.814c1.5187-0.98954 2.8861-1.7992 3.0386-1.7992 0.15248 0 0.60036 0.33338 0.99529 0.74083 0.39492 0.40746 0.80922 0.74083 0.92065 0.74083 0.11144 0 0.71374-0.4834 1.3385-1.0742l1.1358-1.0742 1.4246 0.78971c0.78354 0.43434 1.6105 0.91634 1.8376 1.0711 0.35813 0.24398 0.47728 0.22102 0.8964-0.17272l0.48336-0.4541 2.3231 0.79519c1.2777 0.43735 2.4443 0.75477 2.5925 0.70537 0.14821-0.0494-0.77668-0.90949-2.0553-1.9113-1.2786-1.0018-3.972-3.1137-5.9853-4.6931s-3.7662-2.8716-3.8954-2.8716c-0.24291 0-7.5072 5.804-9.3774 7.4923-1.1992 1.0826-1.0116 1.2148 0.87841 0.61903 0.62001-0.19544 1.19-0.29261 1.2667-0.21593 0.07668 0.07667-0.06504 0.67368-0.31493 1.3267-0.4337 1.1333-0.56488 1.7846-0.35944 1.7846 0.0522 0 1.3375-0.80962 2.8562-1.7992z" fill="#9e2634"/>
   <path d="m97.789 194.27v-2.3805h1.7992c1.7046 0 1.8027 0.025 1.8668 0.47625 0.0632 0.44498-0.01 0.47625-1.1112 0.47625-1.0594 0-1.1789 0.0454-1.1789 0.44801 0 0.37418 0.09555 0.42974 0.57983 0.33717 0.73605-0.14071 1.3252 0.16942 1.3252 0.6976 0 0.33793-0.13363 0.40141-0.76398 0.36297-0.53696-0.0327-0.83574 0.0653-1.0054 0.32986-0.35741 0.55728 0.18583 0.82987 1.399 0.70199 0.95499-0.10067 1.0054-0.0799 1.0054 0.4132 0 0.51379-0.0204 0.51919-1.9579 0.51842l-1.9579-8.5e-4v-2.3805zm-6.0042 2.0154c-0.69075-0.0845-0.70884-0.111-0.59191-0.86571 0.06634-0.42818 0.1861-1.5199 0.26612-2.4261l0.1455-1.6476 1.2931 0.14124c2.6344 0.28773 3.7281 1.556 2.9718 3.4462-0.52568 1.3138-1.5703 1.6596-4.0846 1.3518zm2.5885-1.2221c0.8088-0.8088 0.49951-2.1751-0.55561-2.4545-0.86474-0.22898-1.2146 0.23884-1.2146 1.6242v1.149h0.72571c0.39914 0 0.86915-0.14344 1.0445-0.31875zm12.207-0.68667c-0.30488-1.9061-0.48982-2.2159-1.2141-2.0342-0.45745 0.11481-0.51431 0.0685-0.45203-0.36849 0.0626-0.43933 0.25628-0.5353 1.6004-0.79311 0.84102-0.16131 1.6745-0.23753 1.8521-0.16937 0.50396 0.19339 0.37944 0.71213-0.20623 0.85913-0.61238 0.15369-0.66377 0.58887-0.30116 2.5504 0.23971 1.2967 0.11739 1.5853-0.67521 1.5928-0.26269 2e-3 -0.40186-0.37486-0.60377-1.6372zm-21.809 0.4959c-1.0886-0.31752-1.5756-0.55964-1.5498-0.7705 0.02074-0.16911 0.25888-1.1874 0.52917-2.2628 0.3449-1.3723 0.5861-1.9566 0.80894-1.9597 0.7517-0.0104 3.1749 0.75187 3.2826 1.0326 0.20723 0.54002-0.22141 0.7062-1.124 0.43578-0.95505-0.28614-1.5236-0.1655-1.5236 0.3233 0 0.2139 0.20156 0.32414 0.59267 0.32414 0.6807 0 1.1007 0.33921 1.1007 0.889 0 0.44009-0.2644 0.48384-0.8215 0.13593-0.4629-0.28909-1.0394-0.11615-1.225 0.36747-0.16711 0.43549 0.21718 0.67535 1.3586 0.84796 0.91728 0.13872 0.99706 0.22267 0.7711 0.8115-0.15667 0.40827-0.21758 0.40344-2.1999-0.17471zm25.782 0.35077c-0.0363-0.0873-0.0361-1.2249 4.2e-4 -2.5279l0.0665-2.3691 1.0983-0.32762c1.0096-0.30117 1.1154-0.29933 1.3099 0.0228 0.11641 0.19275 0.71645 1.1184 1.3334 2.0569 1.0316 1.5694 1.0922 1.7281 0.75329 1.9759-0.54815 0.40082-1.1586 0.32767-1.2845-0.15392-0.22479-0.85985-1.9663-0.37996-1.9663 0.54186 0 0.37089-0.1608 0.58809-0.54295 0.73338-0.65225 0.24799-0.68398 0.24996-0.76803 0.0477zm2.1257-2.6603c0.17075-0.20574 0.14662-0.40028-0.0919-0.74083-0.40634-0.58014-0.64108-0.58551-0.78947-0.0181-0.2303 0.88065 0.35915 1.3882 0.88139 0.75891zm-32.512 0.90666c-0.47872-0.19166-0.61988-0.5139-0.30923-0.70589 0.09186-0.0568 0.44316-0.96727 0.78065-2.0233 0.61644-1.9289 0.84815-2.1838 1.5698-1.7269 0.32866 0.20812 0.32162 0.24219-0.57144 2.7632-0.3492 0.98577-0.71559 1.8128-0.8142 1.8379s-0.39361-0.0402-0.65555-0.14508zm37.058-0.57473c-0.0708-0.20373-0.46564-1.169-0.87737-2.1451-0.8745-2.0732-0.91859-1.9872 1.4276-2.7859l1.4845-0.50539 0.58823 0.43727c0.69201 0.51441 0.85998 1.3807 0.40297 2.0782-0.39816 0.60767-0.2605 0.76648 0.52776 0.60883 0.53807-0.10761 0.61001-0.0615 0.61001 0.39129 0 1.0626-0.96564 1.3297-2.1645 0.59875-0.38117-0.2324-0.76447-0.4229-0.85178-0.42333-0.23759-1e-3 -0.19149 1.0123 0.0529 1.1634 0.34945 0.21598 0.24232 0.44725-0.32746 0.70686-0.69624 0.31723-0.72048 0.31376-0.87293-0.12477zm1.7813-3.0592c0.32001-0.26559 0.34992-0.9384 0.05-1.1238-0.11869-0.0734-0.54732-0.024-0.9525 0.10976-0.55158 0.18203-0.7367 0.36311-0.7367 0.72061 0 0.26261 0.0686 0.54604 0.15238 0.62984 0.18295 0.18296 1.1152-0.028 1.4869-0.33642zm-42.478 2.1726c-0.23999-0.23999-0.43635-0.63311-0.43635-0.8736 0-0.52114-0.36378-1.2561-0.62174-1.2561-0.10093 0-0.28312 0.28575-0.40488 0.635-0.23771 0.6819-0.58281 0.79222-1.1587 0.37041-0.33268-0.24366-0.28715-0.42905 0.57599-2.345 0.51547-1.1442 0.97242-2.1157 1.0154-2.1587 0.04301-0.043 0.78955 0.27407 1.659 0.70463 1.9015 0.94165 2.4033 1.6118 1.8917 2.5263-0.17823 0.31861-0.60685 0.67197-0.9525 0.78526-0.88552 0.29021-0.89427 0.31175-0.30779 0.7577 0.42961 0.32667 0.48325 0.46949 0.29272 0.77928-0.3358 0.546-1.0474 0.58028-1.5529 0.0748zm1.4048-2.9035c0.08604-0.22422-0.03916-0.49108-0.34759-0.74083-0.65416-0.52971-1.4283-0.5061-1.6044 0.0489-0.15388 0.48485-0.16704 0.46049 0.4284 0.79306 0.624 0.34853 1.3701 0.299 1.5236-0.10115zm45.359 1.1442c-8.4e-4 -0.14552-0.42949-1.0137-0.9525-1.9294-0.52301-0.91563-0.95092-1.7409-0.95092-1.8339 0-0.27371 2.7332-1.7218 3.1114-1.6485 0.66465 0.12893 0.50783 0.57701-0.35621 1.0178-0.89546 0.45682-1.2058 0.86772-0.95803 1.2686 0.0942 0.15247 0.37477 0.0845 0.84156-0.20405 0.38511-0.23801 0.85382-0.3738 1.0416-0.30175 0.47334 0.18163 0.44143 0.93236-0.0396 0.93236-0.48316 0-0.889 0.40014-0.889 0.87651 0 0.63214 0.38224 0.64709 1.3934 0.0545 0.80212-0.47008 1.0094-0.51912 1.1637-0.27525 0.3106 0.4911 0.12942 0.68546-1.4049 1.5071-1.5721 0.84189-1.9979 0.95596-2.0004 0.53585zm-53.194-1.3013c-0.67726-0.38852-1.3299-0.80488-1.4503-0.92526-0.15072-0.15073 0.05071-0.68047 0.64689-1.7013 0.47617-0.81532 0.95974-1.7296 1.0746-2.0317 0.11486-0.30209 0.28263-0.5441 0.37282-0.53777 0.09019 6e-3 0.78311 0.36773 1.5398 0.80313 0.94349 0.54288 1.3971 0.93835 1.4435 1.2585 0.08504 0.58697-0.19563 0.58857-1.2063 7e-3 -0.77037-0.44337-1.5072-0.43009-1.5072 0.0272 0 0.1185 0.33338 0.35476 0.74083 0.525 0.49514 0.20689 0.74083 0.44938 0.74083 0.73119 0 0.60141-0.38481 0.75876-0.84255 0.34451-0.43362-0.39242-1.2979-0.36387-1.4333 0.0473-0.04759 0.14451 0.39729 0.5635 0.98861 0.93109 0.85022 0.52852 1.0255 0.72817 0.83777 0.95434-0.3394 0.40895-0.5659 0.35853-1.9461-0.4332zm58.199-1.7643c-0.1666-0.3221-0.75023-1.1932-1.297-1.9359l-0.99407-1.3503 0.43724-0.43724c0.39972-0.39972 0.54778-0.41896 1.7252-0.22424 1.4927 0.24687 1.7148 0.0858 1.075-0.77953l-0.45011-0.6088 0.54188-0.35505c0.62748-0.41114 0.51249-0.51047 2.08 1.797 1.1197 1.6482 1.1773 1.7914 0.82723 2.057-0.51842 0.39331-0.65093 0.37256-1.3438-0.21042-0.6467-0.54416-2.2304-0.92823-2.5422-0.6165-0.10988 0.10988 0.12268 0.64994 0.55867 1.2974 0.76964 1.1429 0.78106 1.3655 0.089 1.7359-0.33588 0.17976-0.45551 0.11729-0.70716-0.36928zm-62.741-1.0165c-0.60808-0.4095-1.1056-0.83645-1.1056-0.94876 0-0.11232 0.32581-0.63105 0.72403-1.1527 0.39821-0.52169 0.93963-1.3321 1.2031-1.801 0.52845-0.94026 0.71645-1.0159 1.2732-0.51205 0.35708 0.32316 0.3284 0.41163-0.56542 1.744-0.51787 0.77197-0.94158 1.5157-0.94158 1.6528s0.26194 0.44183 0.58208 0.67729c0.523 0.38464 0.54928 0.46144 0.25893 0.75658-0.29154 0.29635-0.43131 0.25565-1.4288-0.41607zm-4.0319-2.8605-1.0766-0.85722 1.0634-1.3124c0.58489-0.7218 1.2203-1.5743 1.4121-1.8944 0.41049-0.68527 0.42522-0.68775 1.0825-0.18242l0.50758 0.39025-1.0897 1.3094c-0.59931 0.72015-1.0897 1.4404-1.0897 1.6005s0.25026 0.48799 0.55612 0.72859c0.46085 0.36251 0.5108 0.49205 0.29158 0.7562-0.3717 0.44787-0.45088 0.42214-1.6574-0.53847zm72.903-1.0178c-0.30686-0.4428-0.84509-1.0802-1.1961-1.4165-0.54782-0.52485-0.69665-0.57486-1.0515-0.35328-0.6074 0.37933-0.84386 0.31724-0.83058-0.21813 0.0128-0.51372 2.0328-2.2754 2.6092-2.2754 0.51508 0 0.62333 0.41925 0.22258 0.86207-0.45529 0.50308-0.27772 0.91378 0.98742 2.2838 0.88163 0.95475 0.93122 1.3261 0.2274 1.7028-0.34871 0.18662-0.49455 0.0985-0.96846-0.58539zm-76.204-1.7044c-0.3519-0.38884-0.30627-0.47416 1.1826-2.2112l1.5487-1.8068 0.4718 0.44323 0.4718 0.44324-1.1052 1.2576c-0.60785 0.69169-1.2798 1.4873-1.4932 1.768-0.46842 0.61602-0.60289 0.62925-1.0765 0.1059zm12.963-1.3487c-6.827-4.1003-12.158-9.0994-16.525-15.498-1.6229-2.3775-3.672-5.9769-3.5002-6.1487 0.05243-0.0524 1.0155 0.51994 2.1403 1.2719 2.3216 1.5522 3.2996 1.9064 4.3874 1.5888 0.6052-0.17669 0.76514-0.15264 0.94083 0.14145 0.77516 1.2976 1.4437 1.7725 3.3521 2.3812 2.7418 0.87448 5.819 1.5062 8.3254 1.7092 1.1839 0.0959 2.2401 0.22844 2.3472 0.2946 0.10706 0.0662 0.25967 2.2911 0.33914 4.9443s0.2833 5.967 0.45295 7.364c0.36354 2.9936 0.37543 3.2808 0.13576 3.2808-0.09985 0-1.1779-0.59841-2.3957-1.3298zm65.702-0.41645c-0.49126-0.96043-1.0117-1.9124-1.1566-2.1154-0.22671-0.31781-0.13828-0.49424 0.63562-1.2681 0.77389-0.77389 0.95032-0.86232 1.2681-0.63562 0.20304 0.14484 1.155 0.66529 2.1154 1.1566 0.96044 0.49127 1.7462 0.95669 1.7462 1.0343 0 0.0776-0.18027 0.36367-0.4006 0.63577-0.36972 0.45658-0.44379 0.4716-0.96102 0.19478-0.52748-0.2823-0.59961-0.26073-1.2273 0.36698-0.63214 0.63214-0.64827 0.68751-0.3093 1.0621 0.33765 0.37311 0.33029 0.42082-0.13197 0.85509-0.26926 0.25296-0.53364 0.45993-0.58751 0.45993-0.0539 0-0.49988-0.78581-0.99115-1.7462zm1.6455-1.7382c0-0.21368-0.83911-0.74889-1.1741-0.74889-0.24052 0-0.0608 0.85149 0.24405 1.1564 0.26245 0.26245 0.40718 0.28411 0.635 0.095 0.1623-0.13469 0.29508-0.36081 0.29508-0.5025zm-13.835 1.4157c-0.058-0.0939-2.2e-4 -0.92885 0.12833-1.8555 0.2417-1.7419 0.3548-17.864 0.15955-22.746l-0.10583-2.6458 0.78877 0.046c0.43383 0.0253 1.5016 0.28528 2.3727 0.57773 2.2808 0.76564 4.3074 2.2551 9.7777 7.1862 1.149 1.0358 2.3975 2.0835 2.7745 2.3283 0.37691 0.2448 0.68647 0.59227 0.68791 0.77216 4e-3 0.44505-2.645 4.1096-4.6832 6.4795-2.6604 3.0936-6.7505 6.7219-10.025 8.8933-1.7195 1.1403-1.755 1.1585-1.8754 0.96381zm-69.674-0.9017c-0.38303-0.42324-0.3694-0.45082 0.81386-1.6466 1.1545-1.1667 1.4462-1.7697 0.99175-2.0505-0.31609-0.19535-0.25572-0.52555 0.12264-0.67073 0.36237-0.13906 2.629 1.9278 2.629 2.3973 0 0.44463-0.39065 0.52714-0.90382 0.1909-0.4748-0.3111-0.53735-0.27728-1.7456 0.94371-0.68924 0.6965-1.3128 1.2664-1.3857 1.2664-0.07291 0-0.30787-0.1937-0.52212-0.43045zm86.207-3.373c-0.78606-0.69083-1.5951-1.3489-1.7978-1.4624-0.33984-0.19019-0.32888-0.24862 0.14041-0.74815l0.50904-0.54185 0.97129 0.89903c0.53421 0.49447 1.3462 1.2042 1.8044 1.5773 0.81796 0.66588 0.82604 0.68608 0.44345 1.1088-0.21434 0.23684-0.44638 0.42896-0.51565 0.42694-0.0693-2e-3 -0.76908-0.56891-1.5552-1.2597zm-89.173 0.23949c-1.1207-0.69283-1.7638-2.184-1.2798-2.9672 0.29588-0.47874 0.75969-0.25633 0.75969 0.36429 0 1.0251 1.1824 2.1657 1.5793 1.5236 0.06741-0.10908-0.13495-0.72339-0.44969-1.3651-0.48497-0.98883-0.53515-1.2483-0.32894-1.7008 0.30332-0.66573 1.1015-0.88379 1.8734-0.51182 0.77583 0.37388 1.8342 1.8836 1.6524 2.3573-0.21156 0.55131-0.64785 0.43016-0.93338-0.25918-0.3762-0.90822-1.0061-1.4285-1.3334-1.1013-0.20383 0.20383-0.15478 0.43928 0.23123 1.11 0.56323 0.97864 0.65909 1.9879 0.2288 2.409-0.5222 0.511-1.3114 0.56681-1.9996 0.14139zm91.86-2.0294c-0.39485-0.28992-0.38611-0.31111 0.22412-0.54327 0.83596-0.31803 1.5875-1.0377 1.5875-1.5203 0-0.58675-0.55643-0.46582-1.6306 0.35439-1.0662 0.81412-1.1683 0.84372-1.7801 0.5163-1.0284-0.55036-0.90519-1.8699 0.29022-3.1092 0.71425-0.74049 0.99036-0.82839 1.3796-0.43916 0.19057 0.19057 0.0519 0.41724-0.59267 0.969-1.4554 1.2458-0.95181 2.0222 0.52616 0.81116 1.0408-0.85286 1.9575-0.98837 2.5154-0.37184 0.73402 0.81108 0.22321 2.4844-0.98289 3.2198-0.80998 0.49388-0.99918 0.5078-1.5368 0.11308zm-95.416-2.2021c-0.47152-0.52102-0.44114-0.77196 0.12594-1.0405 0.26194-0.12402 1.072-0.71081 1.8002-1.304 0.72819-0.59316 1.4027-1.0785 1.4988-1.0785 0.09616 0 0.30681 0.24661 0.46812 0.54801 0.25601 0.47835 0.25091 0.57172-0.0401 0.73458-0.18336 0.10261-1.0151 0.71326-1.8482 1.357-0.83316 0.64373-1.5463 1.1704-1.5847 1.1704-0.03841 0-0.22747-0.17419-0.42014-0.38708zm98.075-3.2228c-0.87312-0.5715-1.7066-1.0408-1.8521-1.043-0.14552-2e-3 -0.26459-0.10627-0.26459-0.23143 0-0.4527 1.749-3.1591 2.0416-3.1591 0.51278 0 0.55796 0.59184 0.0948 1.2422-0.5006 0.70303-0.58585 1.5094-0.15957 1.5094 0.15594 0 0.38934-0.23224 0.51868-0.5161 0.34444-0.75597 0.98468-1.0459 1.3452-0.60919 0.22636 0.27423 0.23053 0.36641 0.0198 0.43733-0.47209 0.15888-0.72256 0.8582-0.47382 1.323 0.34445 0.64361 0.58146 0.5206 1.2171-0.63168 0.58776-1.0654 0.81432-1.1855 1.1706-0.62065 0.13961 0.22133-0.0676 0.74732-0.72462 1.8395-0.50607 0.84124-1.0159 1.5226-1.1329 1.5141-0.11702-8e-3 -0.92713-0.48297-1.8003-1.0545zm-100.2-0.21619c-1.1068-0.87062-2.2544-2.9473-1.6287-2.9473 0.10897 0 0.96793-0.51527 1.9088-1.145l1.7107-1.145 0.50036 0.66878c1.4249 1.9046 1.5645 3.1895 0.46567 4.2883-0.8756 0.87559-2.0576 0.98763-2.9568 0.28028zm1.7789-0.9403c0.34309-0.17741 0.68223-0.56363 0.75719-0.86227 0.17673-0.70414-0.22455-1.568-0.72834-1.568-0.37957 0-2.153 1.1458-2.153 1.3911 0 0.50045 0.7485 1.2011 1.4393 1.3472 0.03489 7e-3 0.34307-0.13119 0.68485-0.30793zm103.79-11.216c-0.0672-0.17522 0.12452-1.1992 0.42614-2.2754 1.4813-5.2857 2.0366-8.9513 2.1882-14.445 0.39944-14.474-4.7385-26.932-16.673-40.428-1.1324-1.2806-3.9503-4.1878-6.2621-6.4606-6.0826-5.9799-11.429-10.588-25.158-21.686-3.7253-3.0113-7.1477-5.7921-7.6052-6.1795-0.45752-0.38741-0.99484-0.70438-1.194-0.70438-0.34195 0-12.865 9.9143-19.776 15.656-8.1654 6.7841-15.598 13.786-20.32 19.142-1.8089 2.0517-2.6722 2.8796-3.0031 2.8796-1.109 0-0.98948-0.18902 2.8108-4.445 4.7037-5.2676 11.947-12.032 20.195-18.86 5.2968-4.3848 19.895-16.065 20.078-16.065 0.08499 0 1.0552 0.73317 2.1559 1.6293 1.1008 0.89609 4.9982 4.0569 8.6609 7.0239 13.855 11.224 18.167 14.986 25 21.815 8.6644 8.6594 13.051 14.45 16.927 22.343 5.8112 11.836 6.9706 24.438 3.4736 37.756-0.40885 1.557-0.83897 3.0096-0.95583 3.2279-0.25523 0.4769-0.79831 0.52088-0.9681 0.0784zm-109.72-0.52336c-0.43773-0.81792-1.6849-6.1372-2.1168-9.0283-1.422-9.5186-0.3969-18.917 2.9865-27.383 1.8668-4.671 2.3316-5.4019 3.1144-4.8974 0.22505 0.14503 0.1552 0.43537-0.34366 1.4285-1.8862 3.7551-3.6827 9.2953-4.5222 13.946-0.44154 2.4464-0.49634 3.3857-0.49385 8.4667 0.0033 6.7996 0.41541 9.8859 2.1564 16.15 0.32452 1.1677 0.33177 1.3584 0.05824 1.5313-0.45417 0.28721-0.58898 0.25274-0.83907-0.21456zm29.213-14.004c-0.63698-0.10556-1.78-0.46702-2.54-0.80323-0.76002-0.33621-1.55-0.66489-1.7554-0.7304-0.20548-0.0655-0.47235-0.38348-0.59304-0.70661-0.1207-0.32313-0.39213-0.96851-0.60319-1.4342-0.21106-0.46567-0.54568-1.2947-0.74361-1.8422-0.2048-0.56657-0.6839-1.2801-1.1118-1.6558l-0.75197-0.66024 0.52818-0.56671c0.76118-0.81671 0.92979-1.2466 1.0941-2.7892 0.20124-1.8896 0.67249-4.156 1.3864-6.6675 1.5738-5.5364 1.3637-8.863-0.83453-13.215-0.37824-0.74881-0.92523-1.7204-1.2155-2.159s-0.49124-0.90729-0.44655-1.0414c0.08259-0.24777 22.874-8.4525 23.456-8.444 0.17462 0.0026 0.508 0.31056 0.74083 0.68443 0.50049 0.80366 2.0276 1.6323 3.0082 1.6323h0.69598v1.7734c0 1.5194-0.05924 1.8149-0.41371 2.0638-0.70838 0.49724-0.76687 1.3516-0.13573 1.9827 1.0871 1.0871 0.86726 1.4644-2.3823 4.0881-3.4223 2.763-4.7225 4.0825-6.0595 6.1493-2.0071 3.1026-3.0658 6.6724-3.071 10.355-0.0038 2.66 0.33409 3.3921 2.0331 4.4052 0.33678 0.20084 0.23994 0.28095-0.72828 0.60254-2.1032 0.69856-3.9328 3.1529-5.2039 6.9807-0.30621 0.92208-0.66184 1.8031-0.79029 1.9579-0.26549 0.31989-1.7714 0.3368-3.5624 0.04zm-25.618-9.2307c1.25e-4 -3.0624 1.5533-9.418 3.3982-13.905 1.188-2.8894 3.3644-6.9695 4.0783-7.6455 0.25355-0.2401 1.1147-0.60233 1.9136-0.80495 1.3697-0.34736 1.4754-0.34777 1.8518-7e-3 0.58387 0.52839 1.603 2.6736 1.8994 3.9984 0.41736 1.865 0.02486 2.5725-3.4082 6.1439-4.3605 4.5362-6.7068 7.6425-8.5906 11.373-0.51433 1.0186-0.98181 1.8521-1.0389 1.8521s-0.10369-0.45243-0.10367-1.0054zm69.187-15.452c-1.1694-1.7205-2.442-3.0118-5.1164-5.1921-4.1569-3.3888-4.2642-3.5391-3.2164-4.5102 0.68512-0.63495 0.68151-1.448-9e-3 -2.0882-0.50071-0.46405-0.53407-0.61418-0.47625-2.1434l0.0622-1.6444 1.2623-0.25144c1.0628-0.2117 1.3849-0.38964 2.0382-1.1258 2.1492-2.4219 1.4544-7.0575-1.23-8.206-0.99404-0.42532-17.748-0.42641-18.746-0.0013-0.84834 0.36148-1.5189 1.0769-1.9288 2.0579-0.17346 0.41514-0.43994 0.85474-0.59218 0.97689-0.15225 0.12215-1.9913 0.98695-4.0868 1.9218s-7.5248 3.3828-12.065 5.4398c-4.9779 2.2554-8.3485 3.6705-8.4905 3.5647-0.12953-0.0965-0.96095-0.78272-1.8476-1.5249l-1.6121-1.3495 0.41775-0.58668c1.5213-2.1364 9.5438-10.169 14.348-14.366 5.1728-4.5186 22.902-18.924 23.639-19.207 0.41012-0.15738 16.384 12.772 24.451 19.791 4.8054 4.1811 11.945 11.433 14.927 15.162 2.4277 3.0359 5.3934 7.2582 5.3934 7.6786 0 0.11083-1.4758 0.24897-3.3338 0.31205-3.5398 0.12018-4.2608 0.28161-5.1818 1.1603-0.5081 0.4847-0.64388 0.52152-1.1212 0.30403-0.93736-0.42709-2.2298-0.27514-5.1799 0.60899-3.8978 1.1682-4.6468 1.5599-5.2427 2.7419-0.26412 0.52387-0.54987 0.94646-0.635 0.93908-0.0851-7e-3 -0.52736-0.18177-0.98274-0.38755-0.96943-0.43806-1.737-0.34582-3.4589 0.41566-0.63983 0.28296-1.1945 0.51448-1.2326 0.51448s-0.37685-0.45244-0.75271-1.0054zm-22.396-33.587 2.8011-1.811 0.92346 0.85122c1.0326 0.95178 1.2025 0.93552 2.2951-0.21974 1.1053-1.1688 1.1993-1.1716 3.0719-0.09143 1.6552 0.95474 1.8554 0.9928 2.5558 0.48598 0.26524-0.19193 0.8778-0.06191 2.9081 0.61725 1.4146 0.47322 2.6174 0.7871 2.6727 0.69752 0.1502-0.24303-0.6173-0.8971-5.4934-4.6816-2.4448-1.8974-4.9538-3.8623-5.5757-4.3663-0.62186-0.50402-1.2169-0.9164-1.3224-0.9164-0.23043 0-8.0682 6.2951-9.7178 7.8051-1.0407 0.95266-1.11 1.0667-0.6536 1.0753 0.28081 0.0053 1.0178-0.1503 1.6378-0.34574s1.1854-0.29726 1.2564-0.22627c0.07099 0.07099-0.07073 0.66309-0.31493 1.3158-0.5228 1.3973-0.56448 1.8974-0.14474 1.7363 0.1646-0.06316 1.5597-0.92981 3.1003-1.9259zm-38.747 26.5c6.35e-4 -0.14789 0.22094-0.54368 0.48969-0.87954 0.42936-0.53658 0.54551-0.58023 0.95738-0.3598 0.58025 0.31054 0.44989 0.53993-0.61581 1.0836-0.59074 0.30138-0.832 0.34657-0.83125 0.15573z" fill="#331c50"/>
  </g>
 </g>
</svg>
