<?xml version="1.0" encoding="utf-8"?>
<svg viewBox="17.435 58.124 98.113 53.529" width="98.113" height="53.529" xmlns="http://www.w3.org/2000/svg">
  <g transform="matrix(1, 0, 0, 1, -44.685001, -49.709999)">
    <g transform="matrix(.94627 0 0 .9499 18.95 6.9295)" stroke-width=".21167">
      <path d="M 72.493 162.252 C 72.272 161.985 72.348 160.863 72.912 156.061 C 73.291 152.835 73.781 148.635 74 146.729 C 74.22 144.822 74.497 143.144 74.616 143 C 74.735 142.857 75.38 142.675 76.048 142.597 C 76.716 142.519 78.113 142.256 79.152 142.013 C 80.845 141.616 81.065 141.604 81.28 141.898 C 81.412 142.078 81.735 143.685 82 145.47 C 82.671 150.007 83.392 153.293 84.016 154.655 C 84.51 155.733 86.519 157.978 88.233 159.367 C 88.716 159.758 88.782 159.909 88.578 160.155 C 88.101 160.73 82.628 162.138 81.923 161.867 C 81.622 161.752 81.587 161.556 81.708 160.674 C 81.9 159.277 81.278 157.905 80.225 157.406 C 79.584 157.101 79.418 157.097 78.774 157.366 C 77.328 157.97 76.572 159.875 77.162 161.426 C 77.531 162.396 77.163 162.578 74.829 162.578 C 73.227 162.578 72.703 162.505 72.493 162.252 Z M 79.598 152.112 C 80.147 151.882 80.332 151.677 80.332 151.297 C 80.332 150.021 79.163 147.973 78.434 147.973 C 77.91 147.973 77.201 149.154 76.965 150.419 C 76.743 151.605 76.841 151.964 77.451 152.211 C 78.124 152.483 78.783 152.452 79.598 152.112 Z M 67.844 161.954 C 65.378 161.49 61.84 160.501 61.339 160.134 C 60.986 159.876 60.987 159.787 61.364 158.31 C 62.755 152.862 66.02 141.468 66.261 141.219 C 66.511 140.963 66.736 141.003 67.855 141.505 C 68.571 141.827 69.934 142.237 70.882 142.418 C 73.358 142.888 73.293 142.759 72.601 145.804 C 72.48 146.335 72.108 146.395 71.128 146.041 C 70.574 145.841 70.306 145.872 69.49 146.233 C 68.954 146.47 68.346 146.923 68.139 147.238 C 67.776 147.792 67.777 147.841 68.174 148.575 C 68.721 149.589 69.817 150.302 70.826 150.302 C 71.268 150.302 71.691 150.401 71.765 150.522 C 71.883 150.712 71.64 152.767 71.323 154.271 C 71.197 154.869 70.626 154.888 69.702 154.324 C 68.516 153.602 67.473 153.836 66.894 154.954 C 66.479 155.756 66.484 157.276 66.904 157.875 C 67.319 158.468 67.996 158.474 69.335 157.898 C 70.874 157.236 71.02 157.371 71.016 159.45 C 71.013 161.253 70.722 162.229 70.167 162.295 C 69.996 162.315 68.95 162.162 67.844 161.954 Z M 141.864 159.245 C 141.224 158.808 139.476 157.337 137.98 155.976 C 136.484 154.615 134.418 152.867 133.388 152.092 C 131.714 150.833 131.526 150.623 131.62 150.122 C 131.678 149.813 131.979 148.418 132.289 147.021 C 134.053 139.081 135.14 128.8 135.263 118.891 C 135.318 114.481 135.403 112.945 135.6 112.824 C 135.744 112.734 136.847 112.594 138.051 112.512 C 141.668 112.265 144.566 112.906 146.03 114.277 C 147.551 115.702 148.616 120.032 149.044 126.537 C 149.229 129.354 149.04 129.466 147.096 127.684 C 146.326 126.978 145.261 126.19 144.731 125.934 C 143.856 125.51 143.714 125.495 143.217 125.774 C 142.42 126.221 142.059 127.141 142.055 128.736 C 142.049 131.462 143.667 133.359 146.149 133.538 C 146.842 133.588 147.714 133.523 148.086 133.393 C 149.319 132.964 149.406 133.224 149.244 136.855 C 149.02 141.843 148.744 144.423 148.396 144.771 C 148.057 145.11 148.053 145.106 146.114 142.682 C 145.096 141.409 144 140.565 143.362 140.565 C 142.706 140.565 141.781 141.674 141.405 142.912 C 141.213 143.542 141.008 144.915 140.948 145.963 C 140.826 148.1 141.154 149.104 142.14 149.62 C 142.853 149.994 144.456 149.806 146.123 149.153 C 147.896 148.458 148.154 148.573 147.987 149.988 C 147.749 152.016 146.6 156.106 145.829 157.672 C 145.076 159.2 144.21 160.036 143.378 160.038 C 143.186 160.038 142.505 159.681 141.864 159.245 Z M 90.748 158.783 C 87.828 157.795 85.254 154.77 84.361 151.28 C 83.857 149.308 82.873 143.084 82.873 141.866 C 82.873 141.003 82.906 140.959 83.878 140.54 C 85.442 139.865 85.879 139.908 86.303 140.777 C 86.665 141.518 87.451 144.376 88.475 148.679 C 89.296 152.127 90.376 153.9 91.653 153.9 C 92.79 153.9 93.217 152.539 92.734 150.456 C 92.306 148.609 91.648 147.336 89.836 144.845 C 88.193 142.586 87.044 140.372 87.145 139.659 C 87.195 139.311 87.622 138.987 88.799 138.405 C 90.671 137.481 91.012 137.44 91.437 138.088 C 92.1 139.101 95.338 146.475 96.009 148.502 C 96.616 150.337 96.711 150.915 96.723 152.841 C 96.738 155.292 96.531 155.926 95.284 157.252 C 94.576 158.005 93.887 158.423 92.619 158.871 C 91.936 159.111 91.683 159.1 90.748 158.783 Z M 54.813 156.995 C 48.701 152.944 45.525 146.652 46.261 140.055 C 46.986 133.566 50.302 127.62 57.209 120.422 C 61.012 116.459 61.62 115.383 61.435 112.939 C 61.192 109.72 60.359 109.844 57.628 108.506 C 54.628 107.036 51.806 107.564 48.653 110.185 C 45.932 112.446 46.639 113.798 50.396 113.52 C 51.789 113.417 52.027 113.441 51.682 113.65 C 51.424 113.807 50.417 113.907 49.094 113.907 C 47.034 113.907 46.902 113.88 46.368 113.346 C 45.882 112.859 45.827 112.677 45.958 111.979 C 46.075 111.354 46.471 110.814 47.731 109.561 C 51.168 106.145 54.905 105.349 58.845 107.193 C 62.183 108.755 64.171 110.19 64.871 114.572 C 65.15 116.318 64.861 118.761 64.038 121.621 C 63.327 124.089 62.808 126.539 62.626 128.283 C 62.555 128.963 62.438 129.604 62.366 129.709 C 62.294 129.813 61.275 130.002 60.101 130.129 C 57.244 130.438 56.039 131.018 54.19 132.978 C 50.78 136.593 48.683 141.478 49.41 144.113 C 49.693 145.141 50.664 146.346 51.63 146.869 C 52.612 147.401 55.859 147.319 57.79 146.714 C 60.869 145.75 60.843 145.756 61.102 146.015 C 61.288 146.201 60.863 147.685 59.343 152.144 C 57.693 156.988 57.267 158.036 56.93 158.077 C 56.704 158.104 55.752 157.618 54.813 156.995 Z M 101.634 153.658 C 101.58 153.384 101.381 152.137 101.192 150.888 C 100.494 146.283 99.693 144.174 96.442 138.391 C 95.495 136.707 94.773 135.197 94.837 135.036 C 94.901 134.875 95.307 134.492 95.74 134.185 C 96.173 133.878 98.135 132.282 100.099 130.64 C 102.064 128.997 103.85 127.653 104.068 127.653 C 104.554 127.653 104.561 127.905 104.132 130.087 C 103.915 131.194 103.823 132.588 103.868 134.109 L 103.936 136.437 L 103.017 136.728 C 101.383 137.245 100.808 138.901 101.838 140.125 C 102.501 140.914 103.354 140.984 104.247 140.325 C 104.993 139.773 105.438 139.909 105.622 140.742 C 105.698 141.089 106.088 141.916 106.488 142.582 C 107.509 144.276 107.49 144.375 106.098 144.68 C 105.756 144.756 105.409 145.029 105.271 145.332 C 104.767 146.438 105.643 147.887 108.116 150.043 C 108.553 150.424 108.91 150.862 108.91 151.017 C 108.91 151.305 103.364 153.851 102.305 154.049 C 101.832 154.138 101.716 154.07 101.634 153.658 Z M 128.238 149.396 C 127.169 149.055 126.245 148.647 126.185 148.491 C 126.125 148.335 126.185 147.625 126.317 146.914 C 126.697 144.869 126.121 135.996 124.669 121.548 C 124.257 117.449 124.188 116.114 124.376 115.888 C 124.624 115.589 127.357 114.648 129.843 114.005 C 131.887 113.477 131.899 113.51 131.125 117.497 C 128.78 129.568 127.773 137.398 128.377 138.858 C 128.763 139.787 129.533 139.726 130.873 138.66 C 131.928 137.819 132.477 137.627 132.716 138.015 C 132.95 138.392 131.616 146.6 130.921 149.064 C 130.801 149.489 130.586 149.877 130.443 149.927 C 130.3 149.977 129.308 149.738 128.238 149.396 Z M 114.634 149.207 C 111.403 148.28 107.419 143.086 106.166 138.168 C 104.77 132.692 105.161 127.047 107.082 124.935 C 109.7 122.057 113.17 125.428 116.859 134.434 C 118.204 137.72 118.506 139.144 118.514 142.259 C 118.524 146.113 117.71 148.526 116.186 149.163 C 115.8 149.324 115.458 149.447 115.425 149.437 C 115.392 149.426 115.036 149.323 114.634 149.208 L 114.634 149.207 Z M 113.65 139.338 C 113.917 137.765 113.57 136.795 112.219 135.344 C 111.378 134.44 111.006 134.178 110.72 134.287 C 110.384 134.416 110.351 134.657 110.427 136.396 C 110.525 138.644 110.971 139.639 112.139 140.22 C 113.189 140.742 113.436 140.597 113.65 139.338 Z M 122.244 148.609 L 119.599 148.503 L 119.617 147.868 C 119.627 147.518 119.758 146.376 119.909 145.328 C 120.422 141.756 119.933 138.029 118.473 134.385 C 117.425 131.769 115.15 127.251 113.468 124.448 C 112.546 122.911 111.918 121.643 111.988 121.461 C 112.244 120.793 118.661 117.595 119.443 117.746 C 119.649 117.786 119.857 118.118 119.948 118.553 C 120.124 119.4 120.607 124.116 121.085 129.664 C 121.476 134.198 121.915 137.323 122.27 138.103 C 122.586 138.797 123.31 139.007 124.165 138.653 C 124.612 138.468 124.875 138.454 125.029 138.608 C 125.242 138.822 125.848 147.825 125.683 148.323 C 125.561 148.688 125.134 148.724 122.244 148.608 L 122.244 148.609 Z M 58.601 142.323 C 57.586 142.125 57.474 141.141 58.439 140.899 C 59.233 140.699 59.591 139.753 59.591 137.853 C 59.591 136.483 59.671 136.076 60.026 135.625 C 60.829 134.604 62.978 134.434 62.978 135.392 C 62.978 135.565 63.264 136.336 63.613 137.107 C 63.962 137.877 64.248 138.586 64.248 138.682 C 64.248 138.778 63.659 139.486 62.939 140.256 C 61.14 142.179 60.19 142.632 58.601 142.323 Z M 45.621 131.438 C 45.621 128.91 57.26 108.296 58.206 110.095 C 59.259 112.099 59.443 113.796 58.755 115.145 C 58.499 115.646 56.982 117.41 55.382 119.064 C 51.361 123.223 48.612 126.924 46.762 130.67 C 46.316 131.573 45.877 132.311 45.787 132.311 C 45.696 132.311 45.621 131.918 45.621 131.438 Z" fill="#9e2634"/>
    </g>
  </g>
</svg>