<?xml version="1.0" standalone="no"?>
<!DOCTYPE svg PUBLIC "-//W3C//DTD SVG 20010904//EN"
 "http://www.w3.org/TR/2001/REC-SVG-20010904/DTD/svg10.dtd">
<svg version="1.0" xmlns="http://www.w3.org/2000/svg"
 width="582.000000pt" height="582.000000pt" viewBox="0 0 582.000000 582.000000"
 preserveAspectRatio="xMidYMid meet">
<metadata>
Created by potrace 1.14, written by Peter Selinger 2001-2017
</metadata>
<g transform="translate(0.000000,582.000000) scale(0.100000,-0.100000)"
fill="#000000" stroke="none">
<path d="M2790 5564 c-52 -41 -110 -87 -129 -102 -19 -15 -62 -49 -96 -77 -33
-27 -78 -63 -99 -80 -22 -16 -44 -35 -50 -40 -6 -6 -56 -47 -111 -90 -55 -44
-106 -86 -113 -93 -8 -7 -30 -25 -50 -40 -20 -15 -44 -34 -52 -42 -9 -8 -36
-31 -61 -51 -364 -299 -718 -641 -919 -889 -25 -30 -47 -57 -50 -60 -14 -13
-109 -145 -165 -230 -160 -241 -270 -489 -334 -753 -16 -67 -32 -138 -35 -157
-3 -19 -8 -57 -12 -85 -16 -117 -10 -452 11 -620 17 -137 110 -456 176 -605
73 -162 187 -358 271 -465 84 -107 109 -138 148 -179 101 -110 162 -167 314
-294 62 -52 246 -168 360 -228 169 -88 343 -154 526 -199 131 -32 125 -31 177
-39 21 -3 47 -7 58 -10 158 -33 603 -22 775 18 14 3 36 8 50 10 40 7 78 16
190 48 463 132 891 420 1193 803 43 55 85 108 93 118 8 9 14 20 14 23 0 4 15
27 33 53 58 79 152 258 210 396 74 177 141 440 162 636 3 30 8 72 10 94 5 47
6 304 1 355 -9 92 -19 161 -33 230 -8 41 -17 84 -19 95 -2 11 -14 56 -28 100
-164 547 -524 1033 -1196 1615 -41 36 -77 67 -80 70 -6 6 -245 207 -274 230
-10 8 -23 20 -30 25 -6 6 -33 28 -61 50 -27 22 -55 45 -61 50 -6 6 -30 26 -54
45 -87 70 -215 175 -226 185 -6 5 -25 21 -43 35 -18 14 -64 51 -102 82 -99 82
-174 138 -185 138 -5 -1 -52 -34 -104 -76z m130 -131 c32 -22 12 -7 250 -199
338 -274 643 -526 675 -559 11 -11 34 -31 50 -43 104 -81 384 -349 542 -518
150 -162 331 -405 427 -574 61 -109 156 -311 156 -334 0 -7 3 -16 7 -20 4 -3
8 -12 9 -19 2 -7 14 -50 28 -97 57 -195 71 -308 71 -575 0 -221 -12 -327 -60
-525 -109 -458 -403 -915 -780 -1215 -28 -21 -52 -42 -55 -45 -36 -40 -364
-227 -487 -278 -116 -48 -325 -109 -433 -127 -19 -3 -42 -8 -50 -10 -132 -38
-558 -38 -745 -1 -16 3 -41 8 -55 11 -149 29 -276 67 -425 128 -104 42 -278
130 -306 153 -8 8 -19 14 -23 14 -9 0 -158 103 -221 153 -141 113 -465 472
-465 516 0 5 -4 11 -8 13 -12 4 -113 179 -150 258 -56 120 -74 164 -98 235
-24 70 -62 201 -69 233 -23 124 -38 206 -43 252 -9 73 -9 432 0 495 15 106 18
121 23 145 3 14 7 34 10 45 17 85 56 207 105 330 6 17 11 31 10 33 -3 8 127
250 176 327 50 79 210 300 239 331 5 6 30 35 55 64 122 146 448 470 597 593
23 19 48 41 56 48 7 8 35 32 62 54 27 22 58 49 71 60 30 27 71 61 274 225 96
77 195 158 219 178 24 20 54 44 65 52 12 8 26 19 32 25 6 5 28 24 49 40 21 17
70 56 109 87 39 32 73 57 76 58 3 0 17 -8 30 -17z"/>
<path d="M2725 5123 c-94 -74 -179 -142 -190 -151 -11 -9 -43 -35 -70 -57 -28
-22 -59 -47 -70 -57 -11 -9 -76 -62 -145 -118 -288 -236 -378 -317 -615 -555
-225 -225 -305 -314 -305 -336 0 -5 11 -9 23 -9 17 0 45 24 98 82 119 133 401
409 529 518 14 12 41 36 60 53 19 18 66 58 105 91 38 32 72 61 75 65 3 3 21
18 40 32 19 15 45 35 57 45 33 29 282 230 437 353 77 61 144 111 149 111 5 0
79 -58 165 -128 87 -71 184 -151 218 -178 82 -66 332 -272 364 -300 14 -12 63
-54 110 -94 47 -39 90 -77 95 -83 6 -7 30 -30 55 -51 25 -21 97 -89 160 -151
422 -411 622 -694 770 -1090 28 -76 65 -230 76 -325 16 -127 8 -559 -11 -589
-2 -4 -6 -25 -9 -47 -2 -21 -18 -89 -33 -150 -16 -61 -27 -116 -25 -122 6 -19
30 -14 43 9 17 33 52 169 73 284 3 17 8 40 10 53 27 133 22 537 -8 640 -3 9
-7 33 -10 52 -18 123 -111 370 -197 525 -52 94 -190 310 -208 325 -3 3 -33 38
-65 79 -79 99 -114 136 -292 315 -167 168 -250 246 -338 321 -32 28 -63 55
-70 60 -83 78 -832 687 -864 704 -13 7 -53 -20 -187 -126z"/>
<path d="M2614 4813 c-287 -231 -358 -289 -384 -313 -9 -8 -36 -31 -60 -51
-50 -41 -55 -45 -178 -154 -94 -84 -374 -365 -434 -436 -21 -24 -38 -49 -38
-56 0 -16 112 -113 131 -113 9 0 58 20 110 44 52 24 117 54 144 66 28 12 83
38 123 56 41 19 75 34 77 34 2 0 54 24 117 53 62 29 128 59 147 67 98 40 157
76 175 110 23 43 57 70 99 78 18 3 160 5 317 6 263 0 288 -2 324 -20 51 -25
79 -78 78 -148 0 -97 -42 -159 -115 -170 -42 -7 -45 -12 -50 -74 -2 -30 2 -51
13 -65 28 -37 30 -54 9 -80 -10 -14 -19 -30 -19 -37 0 -14 54 -68 130 -130 56
-45 158 -148 196 -197 l22 -28 48 18 c59 21 112 22 140 3 19 -14 22 -12 38 24
19 43 43 57 163 96 69 23 100 30 153 39 8 1 30 -2 48 -7 27 -8 37 -5 65 16 34
26 103 37 235 37 34 0 62 4 62 7 0 18 -143 219 -225 319 -209 251 -500 518
-1050 965 -39 31 -79 65 -91 75 -11 10 -27 23 -36 28 -9 6 -56 43 -104 82 -49
40 -94 73 -99 73 -6 0 -132 -98 -281 -217z m330 -20 c56 -40 333 -259 355
-280 7 -8 11 -16 9 -19 -5 -4 -55 10 -93 26 -42 18 -64 20 -88 9 -22 -10 -34
-7 -91 25 -49 28 -67 33 -73 23 -4 -7 -23 -25 -42 -40 l-34 -28 -26 25 c-15
15 -33 26 -40 26 -16 0 -84 -40 -89 -52 -2 -4 -8 -8 -14 -8 -5 0 -30 -14 -54
-31 -25 -17 -48 -28 -52 -25 -3 4 0 21 6 39 18 49 16 71 -5 62 -10 -4 -34 -9
-53 -12 l-35 -5 29 28 c32 31 328 273 335 274 2 0 27 -16 55 -37z"/>
<path d="M2510 3940 c-14 -5 -104 -36 -200 -70 -96 -34 -186 -66 -200 -70 -14
-4 -77 -27 -140 -50 -63 -23 -142 -51 -175 -62 -33 -11 -73 -27 -88 -35 l-28
-14 20 -32 c117 -192 136 -332 76 -564 -18 -70 -37 -150 -41 -178 -4 -27 -9
-54 -9 -60 -1 -5 -3 -20 -3 -32 -1 -12 -14 -35 -28 -52 l-26 -31 36 -40 c20
-22 36 -45 36 -51 0 -6 12 -38 27 -71 20 -45 35 -64 62 -77 56 -29 129 -51
186 -57 65 -7 84 8 110 87 29 87 64 149 111 195 24 24 53 44 63 44 11 0 23 5
26 10 4 6 10 8 15 5 5 -3 11 -1 14 3 3 5 -11 18 -32 28 -47 25 -61 65 -57 166
4 101 27 185 74 283 47 96 114 172 249 284 55 45 102 92 106 104 3 14 -2 29
-14 42 -24 26 -25 43 -4 66 18 21 29 117 16 137 -9 13 -29 20 -64 21 -10 1
-34 18 -55 40 -32 32 -42 37 -63 31z"/>
<path d="M1234 3746 c-61 -19 -103 -45 -162 -101 -86 -81 -98 -125 -42 -155
22 -12 160 -14 160 -2 0 5 -24 7 -52 6 -52 -2 -86 8 -100 29 -28 44 145 174
237 178 110 6 192 -39 263 -143 43 -64 61 -117 66 -188 5 -72 -22 -117 -157
-263 -101 -110 -159 -181 -215 -263 -78 -116 -146 -271 -158 -361 -3 -26 -8
-51 -10 -55 -11 -18 -4 -162 11 -221 44 -178 173 -344 334 -430 33 -18 35 -18
45 0 9 15 80 198 83 213 0 3 12 42 27 88 38 121 34 136 -26 113 -63 -24 -104
-33 -170 -36 -58 -4 -80 -1 -115 16 -58 28 -87 88 -80 165 9 101 100 259 201
352 59 54 99 69 228 85 35 4 38 8 44 50 6 50 32 172 49 232 38 133 43 258 15
341 -51 149 -177 302 -276 337 -66 23 -149 28 -200 13z"/>
<path d="M1326 3548 c-41 -64 -126 -218 -126 -227 0 -4 -11 -30 -24 -57 -26
-53 -67 -171 -86 -244 -12 -44 -15 -59 -25 -110 -3 -14 -7 -36 -10 -50 -3 -14
-9 -59 -12 -100 l-6 -75 20 25 c11 14 32 50 47 80 49 94 140 218 244 328 62
66 141 157 160 183 26 38 16 122 -25 194 -29 52 -50 67 -84 58 -23 -6 -23 -6
-6 12 15 14 16 20 5 26 -25 17 -39 9 -72 -43z"/>
<path d="M1032 3391 c-13 -8 -99 -189 -107 -226 -1 -5 -9 -31 -18 -56 -15 -45
-45 -156 -53 -194 -2 -11 -6 -31 -9 -45 -5 -25 -10 -61 -22 -160 -12 -107 -5
-407 12 -470 3 -8 7 -33 10 -55 4 -22 10 -56 15 -75 5 -19 11 -46 14 -60 8
-48 29 -125 38 -142 5 -10 17 -18 27 -18 15 0 18 6 16 33 -1 17 -5 39 -8 47
-10 30 -42 174 -63 290 -3 19 -8 125 -10 235 -3 177 3 263 22 354 3 14 7 40
10 56 3 17 9 44 14 60 5 17 18 62 29 101 11 40 40 119 64 175 58 135 61 145
44 152 -8 3 -19 2 -25 -2z"/>
<path d="M4272 3389 c-18 -7 -22 -16 -23 -51 -1 -149 -9 -385 -13 -453 -9
-124 -16 -207 -21 -245 -3 -19 -7 -51 -9 -70 -10 -81 -18 -144 -21 -159 -1 -9
-6 -36 -9 -61 -4 -25 -16 -85 -26 -135 -10 -49 -22 -105 -25 -124 -3 -19 -8
-38 -11 -42 -5 -8 30 -48 62 -70 20 -13 130 -106 164 -139 46 -44 139 -119
167 -135 30 -17 33 -17 58 -1 14 9 35 31 46 49 35 57 103 303 92 334 -5 12
-35 9 -80 -8 -16 -6 -49 -13 -75 -16 -41 -5 -50 -2 -74 22 -26 26 -27 30 -22
113 7 119 41 192 87 192 20 0 78 -52 130 -118 35 -44 47 -44 57 -1 7 34 17
189 18 289 l1 85 -60 1 c-33 0 -74 4 -92 8 -33 8 -98 71 -88 86 3 5 1 12 -5
15 -6 4 -10 33 -9 68 2 49 7 66 25 84 13 13 29 23 37 23 17 0 104 -62 153
-108 29 -27 36 -2 30 97 -10 156 -34 281 -66 353 -39 89 -124 127 -282 126
-51 -1 -103 -5 -116 -9z"/>
<path d="M4089 3355 c-3 -2 -14 -6 -25 -8 -48 -8 -193 -58 -202 -70 -6 -7 -9
-35 -7 -62 6 -101 17 -221 21 -240 4 -18 10 -81 19 -205 1 -25 6 -74 9 -110
15 -150 18 -194 20 -369 3 -209 -2 -197 93 -224 68 -20 69 -19 98 133 3 14 7
34 9 45 2 11 7 40 10 65 3 25 9 59 12 75 11 58 12 95 3 101 -6 3 -31 -8 -58
-25 -57 -37 -74 -39 -88 -8 -16 34 -1 240 27 382 5 28 12 66 14 85 3 19 14 85
25 145 11 61 23 121 25 135 3 14 9 46 14 71 10 51 -2 102 -19 84z"/>
<path d="M3564 3166 c-114 -54 -154 -83 -146 -105 3 -9 31 -61 62 -117 97
-171 175 -343 197 -429 20 -82 25 -121 24 -200 0 -49 -4 -110 -9 -135 -13 -75
-13 -75 94 -78 59 -2 101 1 109 8 8 7 12 27 10 53 -2 23 -6 85 -9 137 -7 101
-16 170 -21 170 -2 0 -16 -5 -30 -10 -42 -16 -62 2 -75 65 -6 31 -13 77 -16
103 -2 26 -6 67 -9 92 -2 25 -7 71 -10 103 -3 31 -7 83 -10 115 -22 240 -28
272 -53 272 -9 -1 -58 -20 -108 -44z"/>
<path d="M3264 2971 c-113 -69 -119 -392 -13 -617 66 -139 173 -247 275 -278
36 -11 98 53 107 111 1 10 5 23 8 28 3 6 5 62 4 125 -2 130 -21 199 -99 365
-109 232 -199 317 -282 266z m168 -406 c45 -49 56 -137 22 -166 -11 -9 -21 -6
-48 15 -28 21 -35 35 -42 78 -11 73 -11 101 0 116 10 14 24 6 68 -43z"/>
<path d="M3084 2824 c-106 -80 -273 -220 -278 -232 -3 -8 21 -64 54 -125 113
-212 147 -304 170 -469 11 -83 13 -88 36 -88 13 0 32 4 42 10 9 5 56 27 105
49 48 22 87 44 87 48 0 5 -25 33 -54 62 -30 30 -60 67 -67 82 -17 43 -5 76 31
84 16 4 30 11 30 16 0 19 -63 141 -75 145 -7 3 -24 -1 -37 -9 -30 -19 -58 -14
-80 15 -33 42 -10 98 49 119 28 9 28 9 27 102 0 50 4 114 9 140 4 27 7 58 5
69 -3 19 -7 17 -54 -18z"/>
<path d="M1583 2590 c-31 -13 -40 -35 -46 -114 -4 -63 -8 -72 -36 -95 -18 -15
-28 -31 -23 -37 11 -17 63 -23 91 -11 35 14 131 108 131 127 0 8 -11 42 -24
75 -26 64 -45 75 -93 55z"/>
<path d="M2640 2492 c-35 -11 -86 -38 -104 -53 -18 -17 -17 -19 7 -71 13 -29
54 -97 91 -151 67 -100 96 -172 96 -237 0 -48 -27 -74 -62 -61 -46 17 -66 66
-129 311 -42 167 -50 182 -92 175 -18 -4 -43 -13 -55 -21 -22 -15 -23 -20 -17
-77 12 -106 45 -286 61 -335 9 -26 25 -59 35 -74 11 -14 19 -30 19 -34 0 -17
96 -97 137 -115 56 -24 74 -24 126 0 85 39 116 97 111 211 -4 104 -7 119 -53
222 -12 26 -21 50 -21 54 0 5 -17 45 -78 177 -29 64 -50 87 -72 79z"/>
<path d="M1732 2218 c-24 -84 -48 -164 -52 -178 -10 -27 -74 -267 -84 -312 -7
-30 16 -52 64 -62 14 -3 41 -10 60 -16 84 -26 190 -42 208 -31 16 10 26 129
12 150 -7 13 -14 13 -52 0 -55 -18 -60 -18 -80 -1 -21 17 -24 69 -6 107 15 34
49 41 99 21 23 -10 45 -13 50 -9 11 12 27 131 18 144 -4 6 -21 13 -38 14 -35
3 -66 26 -87 66 -12 24 -11 28 9 46 37 34 64 44 106 37 43 -7 43 -6 57 68 7
43 11 40 -116 78 -138 40 -119 53 -168 -122z"/>
<path d="M2180 2329 c-52 -11 -97 -23 -101 -27 -8 -7 -16 -51 -24 -130 -8 -70
-15 -134 -20 -162 -2 -14 -6 -52 -10 -84 -3 -33 -8 -73 -10 -90 -4 -27 -9 -74
-20 -179 -4 -44 18 -58 89 -56 87 3 88 3 81 60 -5 40 -2 56 15 83 56 91 150
46 150 -72 l0 -49 48 8 c96 16 162 35 185 51 16 12 11 20 -56 88 -71 74 -110
136 -120 195 -3 17 -7 37 -10 45 -3 8 -8 31 -11 50 -13 93 -45 270 -51 279 -8
14 -19 13 -135 -10z m86 -268 c22 -51 18 -70 -17 -85 -37 -16 -71 -10 -86 13
-13 20 15 118 38 132 18 11 47 -16 65 -60z"/>
<path d="M3887 2012 c-17 -3 -18 -15 -12 -170 9 -238 5 -592 -9 -767 -2 -22 1
-43 7 -47 31 -19 344 248 453 387 21 28 42 52 45 55 12 11 99 138 99 145 0 8
-9 16 -79 73 -22 18 -53 45 -69 60 -16 15 -51 46 -78 69 -27 23 -62 53 -79 68
-77 67 -230 137 -278 127z"/>
<path d="M1230 1781 c0 -15 79 -151 141 -241 108 -158 288 -341 449 -456 76
-55 183 -121 210 -129 25 -8 25 -23 4 185 -1 19 -5 109 -8 199 -3 90 -9 168
-14 173 -10 10 -38 16 -109 22 -52 4 -204 33 -233 44 -8 3 -17 6 -20 7 -81 24
-95 32 -119 66 -24 35 -29 37 -67 32 -45 -6 -73 6 -166 68 -60 41 -68 45 -68
30z"/>
<path d="M1063 1593 c-71 -45 -72 -46 -58 -72 31 -57 71 -91 107 -91 62 0 105
59 84 115 -16 43 -45 95 -54 95 -4 0 -39 -21 -79 -47z m90 -54 c6 -22 -23 -59
-46 -59 -8 0 -21 8 -31 18 -15 18 -15 20 1 34 25 21 56 37 64 32 4 -2 9 -13
12 -25z"/>
<path d="M4609 1562 c-49 -69 -47 -74 31 -120 70 -42 90 -50 90 -33 0 5 6 16
13 23 28 30 52 87 40 99 -10 10 -44 1 -40 -11 1 -3 -6 -16 -15 -29 -14 -20
-18 -22 -23 -9 -4 9 -2 25 4 37 15 27 14 31 -9 31 -10 0 -28 -10 -40 -22 -24
-26 -28 -4 -5 26 20 27 19 46 -2 46 -10 0 -30 -17 -44 -38z"/>
<path d="M1198 1408 c-70 -52 -79 -67 -53 -88 12 -10 27 -3 85 40 60 44 68 54
60 70 -6 11 -13 21 -18 23 -4 3 -37 -18 -74 -45z"/>
<path d="M4507 1404 c-35 -35 -46 -92 -22 -111 26 -18 37 -17 79 12 43 29 46
30 46 11 0 -8 -16 -24 -36 -37 -33 -20 -35 -23 -19 -35 23 -17 53 -4 88 38 24
30 26 39 18 61 -6 15 -22 32 -35 39 -22 9 -30 7 -60 -16 -49 -37 -66 -32 -27
8 32 33 35 56 7 56 -7 0 -25 -12 -39 -26z"/>
<path d="M1279 1334 c-11 -13 -10 -23 4 -62 22 -58 5 -85 -18 -29 -8 20 -15
41 -15 47 0 17 -19 11 -29 -9 -16 -28 -5 -63 29 -93 36 -33 63 -35 89 -9 19
19 18 50 -4 104 -13 30 9 18 34 -20 20 -31 25 -34 33 -19 31 56 -82 139 -123
90z"/>
<path d="M4398 1266 c-17 -23 -16 -24 48 -81 l66 -58 21 22 21 21 -39 33 c-22
17 -52 44 -68 60 -15 15 -29 27 -30 27 -1 0 -10 -11 -19 -24z"/>
<path d="M1432 1218 c-8 -8 -7 -16 1 -29 10 -16 5 -25 -31 -62 -28 -29 -41
-49 -37 -59 13 -32 35 -27 81 18 34 33 50 42 59 34 7 -6 20 -8 29 -4 19 7 10
27 -30 68 -38 38 -59 47 -72 34z"/>
<path d="M4276 1138 c-29 -29 -29 -31 -12 -57 9 -14 29 -50 43 -78 15 -29 30
-53 34 -53 15 0 34 35 34 64 0 28 3 31 32 32 18 0 41 9 53 19 20 18 20 19 -42
52 -34 18 -66 37 -72 43 -17 17 -40 10 -70 -22z m66 -70 c-9 -9 -12 -7 -12 12
0 19 3 21 12 12 9 -9 9 -15 0 -24z"/>
<path d="M1564 1077 c-11 -12 -37 -41 -58 -65 l-39 -42 24 -21 23 -20 25 32
c14 18 40 48 57 68 34 36 35 45 5 61 -14 7 -23 4 -37 -13z"/>
<path d="M4139 1011 c-45 -44 -47 -68 -5 -63 28 3 38 -5 87 -67 l20 -25 20 21
20 20 -36 43 c-31 37 -36 49 -30 77 5 28 3 33 -14 33 -11 0 -39 -18 -62 -39z"/>
<path d="M1620 959 c-58 -77 -57 -83 8 -121 25 -15 31 -16 41 -4 10 11 8 18
-9 33 l-20 20 40 55 40 56 -24 16 c-24 15 -25 14 -76 -55z"/>
<path d="M4027 926 c-18 -14 -18 -16 -1 -40 l17 -26 -49 6 c-42 5 -52 2 -68
-15 -19 -21 -19 -22 1 -44 11 -12 33 -41 48 -64 29 -45 45 -52 65 -28 9 11 8
20 -9 44 -12 16 -21 34 -21 40 0 17 32 13 68 -9 39 -24 55 -25 72 -5 10 12 9
18 -6 32 -9 10 -32 41 -51 70 -37 58 -39 59 -66 39z"/>
<path d="M1756 865 c-25 -36 -46 -70 -46 -75 0 -13 64 -60 83 -60 26 0 30 20
8 41 -12 11 -21 22 -21 26 0 3 15 27 34 53 33 46 34 49 17 64 -10 9 -20 16
-24 16 -3 0 -26 -29 -51 -65z"/>
<path d="M1891 769 c-23 -45 -41 -82 -39 -84 2 -1 28 -17 59 -34 48 -27 58
-29 74 -17 18 13 17 15 -18 37 -20 13 -37 27 -37 32 0 12 38 8 43 -5 3 -10 7
-10 19 0 21 17 12 48 -15 57 -18 6 -19 8 -5 12 9 2 28 -3 41 -11 13 -9 27 -13
30 -9 19 18 2 41 -52 71 l-58 32 -42 -81z"/>
<path d="M3805 787 c-68 -38 -68 -37 -28 -113 20 -38 41 -72 47 -76 12 -8 79
25 106 52 39 39 15 53 -40 25 -28 -15 -45 -9 -32 11 4 6 15 13 25 17 9 3 17
11 17 17 0 18 -30 23 -57 11 -33 -15 -27 9 7 26 30 15 42 35 27 45 -18 12 -28
10 -72 -15z"/>
<path d="M2105 742 c-13 -8 -65 -127 -65 -147 0 -12 21 -25 40 -25 5 0 12 9
15 20 9 29 19 25 30 -12 6 -17 20 -37 31 -45 19 -12 24 -12 38 3 10 10 14 24
10 36 -4 14 1 24 15 34 47 33 17 95 -63 128 -45 19 -38 18 -51 8z m80 -82 c11
-17 -26 -24 -42 -7 -21 20 -8 40 17 27 10 -6 22 -15 25 -20z"/>
<path d="M3655 703 c-24 -5 -72 -21 -101 -35 l-21 -10 24 -50 c13 -27 26 -62
30 -78 7 -35 24 -43 52 -24 18 13 19 19 10 36 -10 19 -9 20 12 14 54 -17 69
-18 81 -5 8 8 13 20 12 27 -1 6 -2 16 -3 21 0 5 -10 7 -20 4 -17 -4 -18 -1
-12 29 10 44 -21 79 -64 71z m12 -59 c2 -5 -6 -15 -18 -22 -30 -19 -53 3 -24
24 20 15 37 14 42 -2z"/>
<path d="M2311 657 c-6 -6 -11 -16 -11 -22 0 -6 -11 -39 -24 -73 -24 -60 -24
-62 -6 -72 10 -6 23 -10 28 -10 13 0 63 147 56 165 -8 19 -30 25 -43 12z"/>
<path d="M2415 617 c-20 -62 -41 -158 -35 -162 4 -3 34 -11 66 -20 55 -14 60
-14 72 2 15 20 7 30 -32 37 -34 6 -40 11 -32 25 5 7 15 7 32 1 19 -8 26 -6 30
5 7 18 -13 45 -32 45 -8 0 -14 4 -14 9 0 5 12 8 26 5 55 -10 63 -8 57 15 -7
27 -130 61 -138 38z"/>
<path d="M3388 618 c-16 -5 -28 -15 -29 -21 -8 -114 -1 -177 21 -177 14 0 41
31 35 40 -3 5 4 14 17 21 18 10 24 8 39 -10 14 -17 22 -19 43 -11 14 5 26 12
26 16 0 4 -21 40 -47 80 -48 76 -56 81 -105 62z m45 -72 c6 -16 -2 -28 -14
-20 -12 7 -11 34 0 34 5 0 11 -6 14 -14z"/>
<path d="M3199 575 c-50 -12 -61 -31 -26 -44 32 -12 33 -16 42 -76 3 -27 11
-53 18 -57 17 -10 46 10 43 30 -18 94 -18 100 4 115 26 18 17 47 -16 45 -13
-1 -42 -7 -65 -13z"/>
<path d="M2676 529 c-19 -146 -22 -137 48 -145 84 -11 140 47 117 119 -13 39
-42 56 -112 64 l-47 6 -6 -44z m107 -30 c19 -26 11 -58 -17 -69 -28 -10 -44 4
-41 39 5 54 32 68 58 30z"/>
<path d="M2925 552 c-29 -6 -30 -12 -27 -101 l4 -81 58 0 c67 0 90 7 90 25 0
13 -28 27 -46 24 -5 -1 -17 -1 -28 0 -15 1 -16 4 -7 15 7 8 21 13 32 11 23 -5
37 21 21 37 -6 6 -22 11 -36 11 -21 0 -24 2 -15 13 6 7 16 11 23 8 7 -3 22 -1
34 3 53 20 -33 49 -103 35z"/>
</g>
</svg>
